<?xml version="1.0" encoding="utf-8"?>
<!-- Generator: Adobe Illustrator 22.0.1, SVG Export Plug-In . SVG Version: 6.00 Build 0)  -->
<svg version="1.1" id="Layer_1" xmlns="http://www.w3.org/2000/svg" xmlns:xlink="http://www.w3.org/1999/xlink" x="0px" y="0px"
	 width="100px" height="100px" viewBox="0 0 100 100" enable-background="new 0 0 100 100" xml:space="preserve">
<g>
	<path fill="#B59945" d="M49.8,15.4c-13.7,0-31.1,13.3-36.7,35.8c-8.3,33.5,23.6,50.2,59.5,35.7C104.8,73.8,81.9,15.4,49.8,15.4z"/>
	<g>
		<path fill="#FCD5AC" d="M46.2,53.5c-0.2-0.1-0.4-0.2-0.5-0.3c0,0.9,0,1.8,0,2.5c0.6,1.1,2.7,4.4,5.3,5.4c2.7-1.1,4.8-4.6,5.3-5.5
			c0-0.6,0-1.3,0-2.1c-0.1,0-0.1,0.1-0.2,0.1C52.8,55,49.2,55,46.2,53.5z"/>
		<path fill="#F6F4F3" d="M60.6,60.5c-0.4-0.2-0.8-0.5-1.2-0.7c-0.9,1.7-3,4.1-3.7,4.9c-0.1,0.1-0.2,0.2-0.4,0.2c0,0,0,0-0.1,0
			c-0.2,0-0.3-0.1-0.4-0.3c-0.6-1.2-3-2.2-4-2.5c-1.1,0.3-3.5,1.3-4.1,2.5c-0.1,0.1-0.2,0.2-0.4,0.3c0,0,0,0-0.1,0
			c-0.1,0-0.3-0.1-0.4-0.2c-0.7-0.8-2.8-3.2-3.7-4.9c-0.5,0.3-1,0.6-1.5,0.9c0.6,1.7,1.7,3.7,3.7,5.7c2.9,2.9,5.4,3.9,6.3,4.1
			c0.9-0.3,3.4-1.2,6.3-4.1C58.9,64.4,60,62.3,60.6,60.5z"/>
		<path fill="#F6A789" d="M45.6,53.2c0.2,0.1,0.4,0.2,0.5,0.3c3.1,1.5,6.7,1.5,9.7,0c0.1,0,0.1-0.1,0.2-0.1c0-0.9,0-1.8,0.1-2.6
			c-0.1,0-0.2,0.1-0.2,0.1c-1.6,0.8-3.3,1.2-5.1,1.2c-1.7,0-3.5-0.4-5.1-1.2c-0.1,0-0.2-0.1-0.2-0.1C45.6,51.5,45.6,52.3,45.6,53.2z
			"/>
		<path fill="#FEAB23" d="M70.7,80.3c-0.4-3-0.8-5.1-0.8-5.1c-0.1-0.3,0.1-0.5,0.4-0.6c0.3-0.1,0.5,0.1,0.6,0.4c0,0,0.2,1.3,0.5,3.3
			c0.3,0.8,0.8,2.1,1.3,3.9c1.5-0.1,4-0.3,6.6-1.1c-0.1-1.1-0.2-2.2-0.3-3.2c-0.5-4.9-2-8.8-7.3-11.9c-0.2,0.1-2.1,1.4-5.6,2.7
			c-3.1,1.2-8.2,2.6-14.8,2.9c0.1,0.9,0.4,3.1,2.1,6c2.3,3.9,2.2,7.8,0.9,10.1C67,87,70,82.6,70.7,80.3z"/>
		<path fill="#FEAB23" d="M53.3,87.8c0-0.1,0-0.2,0.1-0.3c0.9-1.5,1.7-5.1-0.8-9.3c-1.6-2.6-2.1-4.7-2.2-5.9
			c-0.5,0.8-0.9,2.2-0.3,3.9c1.8,5.3,1.4,9.3-1,11.6c0.6,0,1.1,0,1.7,0C51.6,87.8,52.5,87.8,53.3,87.8z"/>
		<path fill="#FEAB23" d="M29.2,82.2c0.3-1.1,0.5-1.9,0.8-2.6c0.4-2.7,0.7-4.5,0.7-4.5c0.1-0.3,0.3-0.5,0.6-0.4
			c0.3,0.1,0.5,0.3,0.4,0.6c0,0-0.4,2-0.8,4.9c0.6,2.2,3.4,7.1,17.2,7.7c-0.1-0.2,0-0.4,0.1-0.6c2.9-2.6,2.1-7.2,0.9-10.7
			c-0.8-2.2,0-3.9,0.5-4.9c-6.5-0.3-11.5-1.7-14.6-2.9c-2.9-1.1-4.6-2.2-5.3-2.6c-5.1,3.1-6.5,7-7,11.7c-0.1,0.9-0.2,2-0.3,3.1
			C25,81.8,27.7,82.1,29.2,82.2z"/>
		<path fill="#19B8BF" d="M72.7,82.2C72.7,82.2,72.7,82.2,72.7,82.2C72.7,82.2,72.7,82.2,72.7,82.2c0,0.1,0,0.2,0.1,0.2
			c0.1,0.2,0.1,0.4,0.2,0.6c0.1,0.2,0.1,0.4,0.2,0.7c0,0.2,0.1,0.5,0.1,0.7c0,0.3,0.1,0.5,0.1,0.8c0,0.3,0.1,0.5,0.1,0.8
			c0,0.2,0.1,0.3,0.1,0.5c2.2-1,4.1-2.3,5.8-3.9c0-0.5-0.1-1-0.1-1.6C76.7,81.8,74.2,82.1,72.7,82.2z"/>
		<path fill="#E29017" d="M54.4,87.7c-0.1,0.1-0.1,0.2-0.2,0.3c-0.1,0.2-0.3,0.2-0.4,0.2c-0.1,0-0.2,0-0.3-0.1
			c-0.2-0.1-0.2-0.3-0.2-0.4c-0.8,0-1.7,0-2.6,0c-0.6,0-1.2,0-1.7,0c-0.1,0.1-0.1,0.1-0.2,0.2c-0.1,0.1-0.2,0.1-0.3,0.1
			c-0.1,0-0.3-0.1-0.4-0.2c0,0-0.1-0.1-0.1-0.2c-13.8-0.6-16.6-5.4-17.2-7.7c-0.3,2.4-0.7,5.5-0.8,8.8c10.9,4.6,25.7,4.5,41.3-1.5
			c-0.2-2.6-0.4-5.1-0.7-7.1C70,82.6,67,87,54.4,87.7z"/>
		<path fill="#E29017" d="M71.9,82.2c0.2,0,0.4,0,0.8,0c0,0,0,0,0,0c-0.5-1.9-0.9-3.1-1.3-3.9C71.6,79.3,71.8,80.7,71.9,82.2z"/>
		<path fill="#E29017" d="M73,83.7c0,0.2,0.1,0.5,0.1,0.7C73.1,84.2,73.1,83.9,73,83.7z"/>
		<path fill="#E29017" d="M72.7,82.4c0.1,0.2,0.1,0.4,0.2,0.6C72.8,82.8,72.8,82.6,72.7,82.4z"/>
		<path fill="#E29017" d="M73.3,85.2c0,0.3,0.1,0.5,0.1,0.8C73.4,85.7,73.4,85.5,73.3,85.2z"/>
		<path fill="#13A0A0" d="M73.3,85.2c0-0.3-0.1-0.5-0.1-0.8c0-0.2-0.1-0.5-0.1-0.7c-0.1-0.2-0.1-0.5-0.2-0.7
			c-0.1-0.2-0.1-0.4-0.2-0.6c0-0.1,0-0.2-0.1-0.2c0,0,0,0,0,0c-0.3,0-0.6,0-0.8,0c0.2,1.5,0.3,3.1,0.4,4.8c0.1,0,0.2-0.1,0.3-0.1
			c0.3-0.1,0.6-0.3,0.9-0.4c0-0.2-0.1-0.3-0.1-0.5C73.4,85.7,73.4,85.5,73.3,85.2z"/>
		<path fill="#19B8BF" d="M28.2,86.9c0-0.3,0.1-0.6,0.1-0.9c0-0.3,0.1-0.5,0.1-0.8c0-0.3,0.1-0.5,0.1-0.8c0-0.2,0.1-0.5,0.1-0.7
			c0.1-0.2,0.1-0.5,0.2-0.7c0.1-0.2,0.1-0.4,0.2-0.6c0-0.1,0-0.2,0.1-0.2c0,0,0,0,0,0c0,0,0,0,0,0c-1.5-0.1-4.1-0.3-6.7-1.2
			c-0.1,1-0.1,2.1-0.2,3.3c1.7,1.4,3.7,2.6,5.8,3.7c0-0.1,0-0.1,0-0.2C28.1,87.4,28.2,87.2,28.2,86.9z"/>
		<path fill="#E29017" d="M29.1,88.3c-0.1,0-0.3,0-0.5,0c0.1,0.1,0.3,0.1,0.4,0.2C29.1,88.4,29.1,88.3,29.1,88.3z"/>
		<path fill="#E29017" d="M28.2,86.9c0,0.3-0.1,0.6-0.1,0.9C28.1,87.5,28.2,87.2,28.2,86.9z"/>
		<path fill="#E29017" d="M28.8,83.7c0,0.2-0.1,0.5-0.1,0.7C28.7,84.2,28.7,83.9,28.8,83.7z"/>
		<path fill="#E29017" d="M29.2,82.2c0.2,0,0.3,0,0.4,0c0.1-1,0.2-1.9,0.3-2.7C29.7,80.2,29.4,81.1,29.2,82.2
			C29.2,82.2,29.2,82.2,29.2,82.2z"/>
		<path fill="#E29017" d="M29.1,82.4C29,82.6,29,82.8,28.9,83C29,82.8,29,82.6,29.1,82.4z"/>
		<path fill="#E29017" d="M28.5,85.2c0,0.3-0.1,0.5-0.1,0.8C28.4,85.7,28.4,85.5,28.5,85.2z"/>
		<path fill="#13A0A0" d="M29.1,88.3c0.1-2.2,0.3-4.3,0.5-6.1c-0.1,0-0.3,0-0.4,0c0,0,0,0,0,0c0,0.1,0,0.2-0.1,0.2
			C29,82.6,29,82.8,28.9,83c-0.1,0.2-0.1,0.4-0.2,0.7c0,0.2-0.1,0.5-0.1,0.7c0,0.2-0.1,0.5-0.1,0.8c0,0.3-0.1,0.5-0.1,0.8
			c0,0.3-0.1,0.6-0.1,0.9c0,0.3-0.1,0.6-0.1,0.9c0,0.1,0,0.1,0,0.2c0.2,0.1,0.4,0.2,0.6,0.3C28.8,88.3,28.9,88.3,29.1,88.3z"/>
		<path fill="#FCD5AC" d="M40.6,39.2c1.8-1.5,4.9-2.2,7.3-2.5c0.9-1.9,0.9-4.9,0.9-4.9c0-0.2,0.1-0.3,0.3-0.4c0.2,0,0.3,0.1,0.4,0.3
			c0,0.1,0.1,2.8-0.7,4.8c1.2-0.1,2.1-0.2,2.2-0.2c0,0,0,0,0,0c0.3,0,7.4,0.4,10.4,2.9c1.2-2.3,1.9-5.2,2.1-6.5c0,0,0,0-0.1,0.1
			c0-0.1,0-0.3,0-0.4c-0.5-0.9-0.7-2.2-0.9-3.4c-0.1-0.9-0.3-2-0.6-2.2c-0.7-0.4-1-1.6-1.1-2.6c-0.7,0.9-1.8,2-3.5,2.4
			c-2.4,0.6-6.7-0.3-7.9-0.6c-0.2,0.4-0.8,0.9-1.8,1.3c0.3,0.1,0.4,0.3,0.3,0.6c-0.1,0.5-2.1,0.9-2.9,1.1c-1.4,0.4-4.3,1.1-4.3,1.1
			s1.5-1.6,3.6-2.4c-1.7-0.2-3.3-0.8-4.2-1.1c-0.1,2.3-1.4,5.2-1.6,5.7c0,0,0,0.1,0,0.1C38.6,33.9,39.2,36.8,40.6,39.2z M55.9,34.2
			c-0.7,0-1.2-0.8-1.2-1.7s0.5-1.7,1.2-1.7s1.2,0.8,1.2,1.7S56.5,34.2,55.9,34.2z M56.8,27.7c2.5,0.7,4.2,2.7,4.2,2.7
			s-2.9-0.8-4.3-1.1c-0.8-0.2-2.8-0.6-2.9-1.1C53.7,27.4,54.8,27.1,56.8,27.7z M45.8,30.8c0.7,0,1.2,0.8,1.2,1.7s-0.5,1.7-1.2,1.7
			c-0.7,0-1.2-0.8-1.2-1.7S45.2,30.8,45.8,30.8z"/>
		<path fill="#FCD5AC" d="M40,42.9c0.5,2,1.6,3.7,3.2,5.2c-0.8-0.9-1.4-1.8-1.8-2.7c-1.3-2.7-1.4-5.2-1.4-5.3c0,0,0-0.1,0-0.1
			c-1.6-2.6-2.2-6-2.4-7.2c-0.8-0.7-1.7-0.9-2.9-0.7c-1.3,0.2-1.7,1.2-1.8,2c-0.3,1.7,0.6,4.4,2.5,5.5c1.6,1,3.3,0.2,3.5,0.1
			c0.2-0.1,0.5,0,0.6,0.2c0.1,0.1,0.1,0.2,0,0.3C39.6,41.1,39.8,42,40,42.9z M37.7,37c-0.2,0.1-0.5,0-0.6-0.3c0-0.1-0.1-0.2-0.1-0.3
			c-0.4,0-0.8,0.1-1.1,0.6c-0.2,0.3-0.4,0.4-0.7,0.3c-0.1,0.1-0.1,0.1-0.2,0.1c0,0-0.1,0-0.1,0c-0.2,0-0.4-0.1-0.4-0.4
			c-0.2-0.8,0-1.6,0.6-2.3c0.4-0.4,1-0.8,1.4-0.8c0.2,0,0.6,0.1,1.5,2.2C38.1,36.7,37.9,36.9,37.7,37z"/>
		<path fill="#70193B" d="M40.6,30.4c0,0,2.9-0.8,4.3-1.1c0.8-0.2,2.8-0.6,2.9-1.1c0.1-0.3-0.1-0.5-0.3-0.6c-0.4,0.2-1,0.3-1.6,0.4
			c-0.5,0.1-1.1,0.1-1.6,0C42.1,28.8,40.6,30.4,40.6,30.4z"/>
		<path fill="#70193B" d="M56.8,29.2c1.4,0.4,4.3,1.1,4.3,1.1s-1.8-1.9-4.2-2.7c-2-0.6-3.1-0.4-3,0.4C54,28.7,55.9,29,56.8,29.2z"/>
		<path fill="#572D21" d="M34.4,31.1c1.3-0.2,2.4,0,3.3,0.6c0,0,0,0,0,0c0.5-1.1,1.5-3.8,1.3-5.6c0-0.2,0.1-0.3,0.2-0.4
			c0.1-0.1,0.3-0.1,0.5,0c0,0,3.4,1.7,6,1.3c2.4-0.3,2.9-1.5,2.9-1.5c0.1-0.2,0.3-0.4,0.5-0.3c0.1,0,5.2,1.3,7.8,0.6
			c2.5-0.6,3.7-3.1,3.7-3.1c0.1-0.2,0.3-0.3,0.5-0.2c0.2,0,0.4,0.2,0.4,0.4c0,1.1,0.3,2.8,0.8,3.2c0.6,0.4,0.8,1.5,1,2.8
			c0.1,0.9,0.3,1.9,0.6,2.7c0.9-0.6,2-0.8,3.2-0.6c0.4,0.1,0.7,0.2,1,0.4c0.9-2.1,2.2-5.8,1.9-9.1c-0.1-1.5-0.6-2.6-1.5-3.3
			c-1.4-1.1-3.3-0.9-3.3-0.9c-0.2,0-0.4-0.1-0.5-0.3c0,0-0.9-2.3-2.7-4.6c-2.4-3-5.4-4.5-8.8-4.5c0,0,0,0,0,0
			c-6.4,0-9.4,2.2-12.6,4.5c-0.4,0.3-0.9,0.7-1.4,1c-0.9,0.6-1.9,1.1-2.8,1.5c-2.2,1.1-4.4,2.1-4.9,4.9c-0.7,3.7,0.5,5.5,0.9,6.3
			c0.1,0.1,0.1,0.2,0.2,0.3c0.1,0.3,0.1,0.6,0.1,1.2c0,1.2,0,2.3,1,2.9C34.1,31.2,34.3,31.1,34.4,31.1z"/>
		<path fill="#FCD5AC" d="M67,32c-1.1-0.2-2,0-2.7,0.6c-0.1,1.2-0.9,5-2.5,7.6c0,0.5-0.2,2.8-1.4,5.2c-0.4,0.9-1,1.8-1.8,2.7
			c1.6-1.4,2.7-3.1,3.2-5.2c0.2-1,0.4-2,0.6-3.1c0,0,0,0,0,0c0,0,0,0,0-0.1c0.1-0.2,0.4-0.3,0.6-0.2c0.5,0.2,1.9,0.7,3.3-0.1
			c1.9-1.2,2.9-3.8,2.5-5.5C68.7,33.2,68.2,32.2,67,32z M67.3,37.2c0,0.2-0.2,0.4-0.4,0.4c0,0-0.1,0-0.1,0c-0.1,0-0.2-0.1-0.2-0.1
			c-0.2,0.1-0.5,0-0.7-0.3c-0.3-0.5-0.8-0.6-1.1-0.6c0,0.1-0.1,0.2-0.1,0.3C64.5,37,64.3,37.1,64,37c-0.2-0.1-0.3-0.4-0.3-0.6
			c0.9-2.1,1.3-2.2,1.5-2.2c0.4-0.1,1,0.4,1.4,0.8C67.3,35.6,67.5,36.4,67.3,37.2z"/>
		<path fill="#F6A789" d="M66.4,37c0.1-0.4,0-0.9-0.3-1.2c-0.2-0.4-0.6-0.6-0.7-0.6c-0.2,0.2-0.4,0.8-0.7,1.3c0.4,0,0.8,0.1,1.1,0.6
			c0.2,0.3,0.4,0.4,0.7,0.3C66.4,37.3,66.4,37.2,66.4,37z"/>
		<path fill="#58002A" d="M65.3,34.2c-0.2,0-0.6,0.1-1.5,2.2c-0.1,0.2,0,0.5,0.3,0.6c0.2,0.1,0.5,0,0.6-0.3c0-0.1,0.1-0.2,0.1-0.3
			c0.3-0.6,0.5-1.1,0.7-1.3c0.2,0.1,0.5,0.3,0.7,0.6c0.3,0.4,0.4,0.8,0.3,1.2c0,0.1,0,0.3,0.1,0.4c0.1,0.1,0.1,0.1,0.2,0.1
			c0,0,0.1,0,0.1,0c0.2,0,0.4-0.1,0.4-0.4c0.2-0.8,0-1.6-0.6-2.3C66.3,34.6,65.7,34.1,65.3,34.2z"/>
		<path fill="#F6A789" d="M49.4,31.7c0-0.2-0.2-0.3-0.4-0.3c-0.2,0-0.3,0.2-0.3,0.4c0,0,0.1,3-0.9,4.9c0.3,0,0.6-0.1,0.8-0.1
			C49.5,34.5,49.4,31.8,49.4,31.7z"/>
		<path fill="#70193B" d="M45.8,34.2c0.7,0,1.2-0.8,1.2-1.7s-0.5-1.7-1.2-1.7c-0.7,0-1.2,0.8-1.2,1.7S45.2,34.2,45.8,34.2z"/>
		<ellipse fill="#70193B" cx="55.9" cy="32.5" rx="1.2" ry="1.7"/>
		<path fill="#90E9CD" d="M44.2,47.8c1,0.4,2.1,0.7,3.3,0.9c0.3,0,0.5,0,0.8,0c7.7-1,9.5-7.4,10-10.1c-3-1.1-7.1-1.3-7.4-1.4
			c-0.4,0-7.6,0.4-10,2.9c0.1,0.6,0.3,2.7,1.4,4.8C42.7,46.1,43.4,47,44.2,47.8z"/>
		<path fill="#7DD8BA" d="M48.3,48.7c-0.3,0-0.5,0-0.8,0c-1.3-0.2-2.3-0.5-3.3-0.9c1.6,1.7,3.7,2.7,6.4,3c0.2,0,0.4,0,0.7,0
			c3.9-0.5,6.7-2.5,8.4-5.9c1.1-2.1,1.3-4.2,1.3-4.8c-0.6-0.6-1.6-1.1-2.7-1.5C57.8,41.3,55.9,47.7,48.3,48.7z"/>
		<path fill="#F6A789" d="M35.6,35.8c-0.3,0.4-0.4,0.8-0.3,1.2c0,0.1,0,0.3-0.1,0.4c0.2,0.1,0.5,0,0.7-0.3c0.3-0.5,0.8-0.6,1.1-0.6
			c-0.3-0.6-0.5-1.1-0.7-1.3C36.1,35.2,35.8,35.4,35.6,35.8z"/>
		<path fill="#58002A" d="M38,36.4c-0.9-2.1-1.3-2.2-1.5-2.2c-0.4-0.1-1,0.4-1.4,0.8c-0.6,0.6-0.8,1.4-0.6,2.3
			c0,0.2,0.2,0.4,0.4,0.4c0,0,0.1,0,0.1,0c0.1,0,0.2-0.1,0.2-0.1c0.1-0.1,0.1-0.2,0.1-0.4c-0.1-0.4,0-0.9,0.3-1.2
			c0.2-0.4,0.6-0.6,0.7-0.6c0.2,0.2,0.4,0.8,0.7,1.3c0,0.1,0.1,0.2,0.1,0.3c0.1,0.2,0.4,0.3,0.6,0.3C37.9,36.9,38.1,36.7,38,36.4z"
			/>
		<path fill="#58002A" d="M31.7,75.2c0.1-0.3-0.1-0.5-0.4-0.6c-0.3-0.1-0.5,0.1-0.6,0.4c0,0-0.4,1.8-0.7,4.5
			c-0.1,0.8-0.2,1.7-0.3,2.7c-0.2,1.8-0.4,3.9-0.5,6.1c0,0.1,0,0.1,0,0.2c0.3,0.2,0.7,0.3,1,0.4c0.1-3.3,0.5-6.4,0.8-8.8
			C31.3,77.1,31.6,75.2,31.7,75.2z"/>
		<path fill="#58002A" d="M71.9,82.2c-0.2-1.5-0.3-2.8-0.5-3.9c-0.3-2-0.5-3.2-0.5-3.3c-0.1-0.3-0.3-0.5-0.6-0.4
			c-0.3,0.1-0.5,0.3-0.4,0.6c0,0,0.4,2.1,0.8,5.1c0.3,2,0.5,4.5,0.7,7.1c0.3-0.1,0.7-0.3,1-0.4C72.2,85.3,72.1,83.7,71.9,82.2z"/>
		<path fill="#5AAAF9" d="M42.7,58.5c0,0.6,1.8,3,3.5,5.1c0.8-0.9,2.3-1.6,3.3-2.1c-2.3-1.4-4.1-4.1-4.8-5.3
			C43.8,56.9,42.7,57.9,42.7,58.5z"/>
		<path fill="#5AAAF9" d="M52.2,61.5c1,0.4,2.4,1.1,3.2,2c1.8-2,3.5-4.4,3.5-5.1c0-0.6-1.1-1.6-2-2.3C56.2,57.4,54.5,60.1,52.2,61.5
			z"/>
		<path fill="#58002A" d="M72.2,65.1c0,0-0.1,0-0.1-0.1c0.1-0.6,0.3-1.5,0.2-2.6c-0.1-1.8-0.7-4.5-3-7.2c-1.9-2.2-4.6-3.6-8-4.1
			c-1.8-0.3-3.4-0.2-4.1-0.2c0-0.3,0-0.5,0-0.7c2.8-1.7,4.6-4.2,5.4-7c0.2-0.8,0.4-1.7,0.5-2.6c0.4,0.1,0.9,0.2,1.5,0.2
			c0.7,0,1.4-0.2,2.2-0.6c2-1.2,3.4-4.1,3-6.4c-0.1-0.7-0.4-1.3-0.8-1.7c1-2.2,2.4-6.1,2.1-9.8c-0.1-1.7-0.8-3.1-1.9-3.9
			c-1.3-1.1-2.9-1.2-3.6-1.1c-0.3-0.7-1.2-2.6-2.7-4.5c-2.6-3.2-5.9-4.8-9.5-4.8c-6.7,0-9.9,2.4-13.1,4.6c-0.4,0.3-0.9,0.6-1.4,1
			c-0.8,0.6-1.8,1-2.7,1.5c-2.4,1.1-4.8,2.3-5.4,5.5c-0.7,4,0.5,6,1.1,6.9c0.1,0.1,0.1,0.2,0.1,0.2c0,0.1,0,0.5,0,0.7
			c0,1-0.1,2.5,1.1,3.4c-0.6,0.5-1,1.2-1.2,2.1c-0.4,2.3,0.9,5.2,3,6.4c0.8,0.5,1.6,0.6,2.3,0.6c0.6,0,1.1-0.1,1.5-0.2
			c0.2,0.9,0.3,1.7,0.5,2.5c0.7,2.9,2.6,5.3,5.4,7c0,0.2,0,0.5,0,0.8c-0.5,0-2.3-0.2-4.5,0.2c-3.4,0.5-6.2,1.9-8.1,4.1
			c-2.3,2.7-2.9,5.4-3,7.2c-0.1,1.4,0.1,2.4,0.3,2.9c-5.4,3.3-6.9,7.4-7.4,12.5c-0.2,1.6-0.3,3.6-0.4,5.7c0.3,0.3,0.6,0.6,1,0.8
			c0.1-1.1,0.1-2.2,0.2-3.3c0.1-1.1,0.2-2.2,0.3-3.1c0.5-4.8,2-8.6,7-11.7c0.6,0.4,2.4,1.5,5.3,2.6c3.1,1.2,8.1,2.6,14.6,2.9
			c-0.6,1-1.3,2.7-0.5,4.9c1.2,3.5,2,8.1-0.9,10.7c-0.2,0.1-0.2,0.4-0.1,0.6c0,0.1,0,0.1,0.1,0.2c0.1,0.1,0.2,0.2,0.4,0.2
			c0.1,0,0.2,0,0.3-0.1c0.1-0.1,0.1-0.1,0.2-0.2c2.5-2.3,2.9-6.3,1-11.6c-0.6-1.7-0.1-3.1,0.3-3.9c0.2,1.2,0.7,3.3,2.2,5.9
			c2.5,4.2,1.7,7.9,0.8,9.3c-0.1,0.1-0.1,0.2-0.1,0.3c0,0.2,0.1,0.3,0.2,0.4c0.1,0.1,0.2,0.1,0.3,0.1c0.2,0,0.3-0.1,0.4-0.2
			c0.1-0.1,0.1-0.2,0.2-0.3c1.2-2.3,1.4-6.2-0.9-10.1c-1.8-3-2.1-5.2-2.1-6c6.6-0.3,11.6-1.7,14.8-2.9c3.5-1.3,5.3-2.6,5.6-2.7
			c5.3,3.2,6.7,7,7.3,11.9c0.1,1,0.2,2,0.3,3.2c0,0.5,0.1,1,0.1,1.6c0.3-0.3,0.7-0.6,1-0.9c-0.1-1.4-0.2-2.8-0.3-3.9
			C79.4,72.6,77.8,68.4,72.2,65.1z M30.2,65.2c-0.1-0.4-0.4-1.4-0.3-2.8c0.1-2.3,1.1-4.5,2.8-6.5c4.1-4.8,11.8-3.9,11.9-3.9
			c0,1.1,0,2.3,0,3.2c-0.6,0.4-2.6,1.7-2.8,3c-0.3,0.2-0.8,0.5-1.6,0.9c0-0.2-0.1-0.4-0.1-0.6c-0.3-2.2,0-3.7,0-3.7
			c0.1-0.3-0.1-0.5-0.4-0.6c-0.3-0.1-0.5,0.1-0.6,0.4c0,0.1-0.4,1.7,0,4.1c0.3,2.2,1.4,5.4,4.5,8.6c1.6,1.6,3.1,2.7,4.3,3.4
			c-5.5-0.4-9.7-1.7-12.5-2.7C32.5,66.6,30.7,65.5,30.2,65.2z M39.4,39.8c-0.1-0.2-0.4-0.3-0.6-0.2c-0.2,0.1-1.9,0.8-3.5-0.1
			c-1.9-1.2-2.9-3.8-2.5-5.5c0.1-0.8,0.6-1.7,1.8-2c1.1-0.2,2.1,0,2.9,0.7c0.2,1.2,0.9,4.6,2.4,7.2c0,0,0,0.1,0,0.1
			c0,0.1,0.1,2.6,1.4,5.3c0.4,0.9,1,1.8,1.8,2.7c-1.6-1.4-2.7-3.1-3.2-5.2c-0.2-0.9-0.4-1.8-0.6-2.8C39.5,40,39.5,39.9,39.4,39.8z
			 M32.9,28.3c0-0.5,0-0.9-0.1-1.2c0-0.1-0.1-0.2-0.2-0.3c-0.5-0.8-1.6-2.6-0.9-6.3c0.5-2.8,2.6-3.8,4.9-4.9
			c0.9-0.4,1.9-0.9,2.8-1.5c0.5-0.3,0.9-0.7,1.4-1c3.2-2.3,6.2-4.5,12.6-4.5c0,0,0,0,0,0c3.4,0,6.3,1.5,8.8,4.5
			c1.9,2.3,2.7,4.5,2.7,4.6c0.1,0.2,0.3,0.3,0.5,0.3c0,0,1.9-0.2,3.3,0.9c0.9,0.7,1.4,1.8,1.5,3.3c0.3,3.3-1,7-1.9,9.1
			c-0.3-0.2-0.6-0.3-1-0.4c-1.2-0.2-2.3,0-3.2,0.6c-0.3-0.8-0.5-1.8-0.6-2.7c-0.2-1.3-0.3-2.4-1-2.8c-0.5-0.3-0.8-2.1-0.8-3.2
			c0-0.2-0.2-0.4-0.4-0.4c-0.2,0-0.4,0.1-0.5,0.2c0,0-1.2,2.5-3.7,3.1c-2.6,0.7-7.8-0.6-7.8-0.6c-0.2-0.1-0.5,0.1-0.5,0.3
			c0,0-0.5,1.2-2.9,1.5c-2.6,0.3-6-1.3-6-1.3c-0.1-0.1-0.3-0.1-0.5,0c-0.1,0.1-0.2,0.3-0.2,0.4c0.2,1.8-0.9,4.4-1.3,5.6c0,0,0,0,0,0
			c-0.9-0.7-2.1-0.9-3.3-0.6c-0.2,0-0.3,0.1-0.5,0.1C32.9,30.6,32.9,29.6,32.9,28.3z M66.3,39.4c-1.4,0.9-2.8,0.4-3.3,0.1
			c-0.2-0.1-0.5,0-0.6,0.2c0,0,0,0,0,0.1c0,0,0,0,0,0c-0.2,1.1-0.4,2.1-0.6,3.1c-0.5,2-1.6,3.7-3.2,5.2c0.8-0.9,1.4-1.8,1.8-2.7
			c1.2-2.4,1.4-4.7,1.4-5.2c1.6-2.6,2.4-6.3,2.5-7.6C65,32,65.9,31.8,67,32c1.3,0.2,1.7,1.2,1.8,2C69.1,35.6,68.2,38.3,66.3,39.4z
			 M38.4,32.7c0,0,0-0.1,0-0.1c0.3-0.6,1.6-3.4,1.6-5.7c0.9,0.4,2.5,1,4.2,1.1c0.5,0.1,1.1,0.1,1.6,0c0.7-0.1,1.2-0.2,1.6-0.4
			c1-0.4,1.5-1,1.8-1.3c1.2,0.3,5.5,1.2,7.9,0.6c1.7-0.4,2.9-1.6,3.5-2.4c0.1,1,0.5,2.1,1.1,2.6c0.3,0.2,0.5,1.3,0.6,2.2
			c0.2,1.1,0.4,2.4,0.9,3.4c0,0.1,0,0.3,0,0.4c0,0,0,0,0.1-0.1c-0.2,1.3-0.9,4.2-2.1,6.5c-2.9-2.6-10.1-2.9-10.4-2.9c0,0,0,0,0,0
			c-0.1,0-1,0-2.2,0.2c-0.3,0-0.5,0.1-0.8,0.1c-2.3,0.3-5.5,1.1-7.3,2.5C39.2,36.8,38.6,33.9,38.4,32.7z M50.9,37.3
			c0.3,0,4.3,0.2,7.4,1.4c1.1,0.4,2,0.9,2.7,1.5c0,0.6-0.3,2.7-1.3,4.8c-1.7,3.4-4.5,5.4-8.4,5.9c-0.2,0-0.4,0-0.7,0
			c-2.6-0.3-4.7-1.4-6.4-3c-0.8-0.8-1.5-1.7-2-2.8c-1.1-2.1-1.3-4.2-1.4-4.8C43.2,37.7,50.4,37.3,50.9,37.3z M45.8,50.9
			c1.6,0.8,3.3,1.2,5.1,1.2c1.7,0,3.5-0.4,5.1-1.2c0.1,0,0.2-0.1,0.2-0.1c0,0.8,0,1.7-0.1,2.6c0,0.8,0,1.5,0,2.1
			c-0.5,0.9-2.6,4.5-5.3,5.5c-2.6-1-4.6-4.3-5.3-5.4c0-0.7,0-1.5,0-2.5c0-0.8,0-1.7-0.1-2.4C45.6,50.8,45.7,50.8,45.8,50.9z
			 M58.9,58.5c0,0.6-1.8,3-3.5,5.1c-0.8-0.9-2.2-1.6-3.2-2c2.3-1.4,4.1-4.1,4.7-5.3C57.8,56.9,58.9,57.9,58.9,58.5z M44.8,56.2
			c0.7,1.1,2.4,3.9,4.8,5.3c-1,0.4-2.5,1.1-3.3,2.1c-1.8-2-3.5-4.4-3.5-5.1C42.7,57.9,43.8,56.9,44.8,56.2z M50.6,70.5
			c-0.9-0.3-3.3-1.2-6.3-4.1c-2-2-3.1-4-3.7-5.7c0.6-0.3,1.1-0.6,1.5-0.9c0.9,1.7,3,4,3.7,4.9c0.1,0.1,0.2,0.2,0.4,0.2
			c0,0,0,0,0.1,0c0.2,0,0.3-0.1,0.4-0.3c0.6-1.2,3.1-2.2,4.1-2.5c1,0.3,3.4,1.3,4,2.5c0.1,0.1,0.2,0.2,0.4,0.3c0,0,0,0,0.1,0
			c0.1,0,0.3-0.1,0.4-0.2c0.8-0.8,2.8-3.2,3.7-4.9c0.4,0.2,0.8,0.5,1.2,0.7c-0.6,1.8-1.7,3.9-3.7,5.9C53.9,69.3,51.5,70.3,50.6,70.5
			z M57.6,67.1c3.2-3.1,4.2-6.4,4.5-8.6c0.4-2.4,0-4,0-4.1c-0.1-0.3-0.3-0.4-0.6-0.4c-0.3,0.1-0.4,0.3-0.4,0.6c0,0,0.4,1.7-0.1,4
			c-0.6-0.3-1-0.6-1.2-0.7c-0.3-1.3-2.1-2.5-2.7-2.9c0-0.9,0-2.1,0-3.3c1.5-0.1,7.7-0.3,11.4,3.9c1.7,2,2.7,4.2,2.8,6.5
			c0.1,1.4-0.2,2.4-0.3,2.8c-1,0.6-7.3,4.4-17.7,5.3C54.5,69.8,56,68.7,57.6,67.1z"/>
		<path fill="#FEAB23" d="M35.5,67.7c2.7,1,7,2.3,12.5,2.7c-1.2-0.7-2.7-1.7-4.3-3.4c-3.2-3.1-4.2-6.4-4.5-8.6c-0.4-2.4,0-4,0-4.1
			c0.1-0.3,0.3-0.4,0.6-0.4c0.3,0.1,0.4,0.3,0.4,0.6c0,0-0.4,1.5,0,3.7c0,0.2,0.1,0.4,0.1,0.6c0.7-0.4,1.3-0.7,1.6-0.9
			c0.3-1.3,2.3-2.7,2.8-3c0-0.9,0-2.1,0-3.2c-0.1,0-7.8-0.9-11.9,3.9c-1.7,2-2.7,4.2-2.8,6.5c-0.1,1.4,0.2,2.4,0.3,2.8
			C30.7,65.5,32.5,66.6,35.5,67.7z"/>
		<path fill="#FEAB23" d="M71,65.2c0.1-0.4,0.4-1.4,0.3-2.8c-0.1-2.3-1.1-4.5-2.8-6.5c-3.6-4.2-9.9-4-11.4-3.9c0,1.1,0,2.3,0,3.3
			c0.7,0.4,2.4,1.7,2.7,2.9c0.2,0.1,0.6,0.3,1.2,0.7c0.4-2.4,0.1-4,0.1-4c-0.1-0.3,0.1-0.5,0.4-0.6c0.3-0.1,0.5,0.1,0.6,0.4
			c0,0.1,0.4,1.7,0,4.1c-0.3,2.2-1.4,5.4-4.5,8.6c-1.6,1.6-3.1,2.7-4.3,3.4C63.7,69.6,70,65.8,71,65.2z"/>
	</g>
</g>
</svg>
