<?xml version="1.0" encoding="utf-8"?>
<!-- Generator: Adobe Illustrator 22.0.1, SVG Export Plug-In . SVG Version: 6.00 Build 0)  -->
<svg version="1.1" id="Layer_1" xmlns="http://www.w3.org/2000/svg" xmlns:xlink="http://www.w3.org/1999/xlink" x="0px" y="0px"
	 width="100px" height="100px" viewBox="0 0 100 100" enable-background="new 0 0 100 100" xml:space="preserve">
<g>
	<path fill="#FEAB23" d="M49.8,16.2c-13.7,0-31.1,13.3-36.7,35.8c-8.3,33.5,23.6,50.2,59.5,35.7C104.8,74.7,81.9,16.2,49.8,16.2z"/>
	<g>
		<path fill="#A65340" d="M27.8,31.3c0.4,2.2,1,4,1.8,5.5c-0.5-4.6,0.6-7.4,1.2-8.5C30.2,27,30,26,30,25.9c-0.1-0.2,0.1-0.5,0.3-0.5
			c0.2-0.1,0.5,0.1,0.5,0.3c0,0,0.1,0.6,0.4,1.5c0.4,0.4,1.2,1.1,2.9,1.9l1.9-3.1c0.1-1.2,0.2-2.3,0.6-3.1c0.1-0.1,0.2-0.2,0.3-0.2
			c0.1,0,0.3,0,0.4,0.1c0,0,0.4,0.3,1.2,0.8c2.3,0.6,6.7,1.8,8.5,2.3l-0.9-2.7c0,0,11.2,1.2,14.6,3.9c0,0,2.2-2,2.7-3.9
			c-0.2-0.6-0.4-1.1-0.7-1.7c-0.1-0.2,0-0.5,0.2-0.6s0.5,0,0.6,0.2c1,2,1.4,3.8,1.5,5.4c0.8,1,2.2,3.2,2.6,6.2c0.4,2.5,1.9,0,3-2.9
			c0.1-4.6-1.1-9.4-3.5-13c-2.1-3.1-4.4-4.4-5.8-4.9c-1.6-0.6-2.7-0.4-2.7-0.4c-0.1,0-0.3,0-0.4-0.1C53,6.6,44,7.4,37.8,10.2
			C31.6,12.9,25.9,20.7,27.8,31.3z"/>
		<path fill="#A65340" d="M65.6,58.6c1.4,1.8-1.1,0.2-1.5,0s4.3,3.2,5.7,5.2c0.6,0.9,0.9,2.1,1.1,3.3c0.9,0.8,1.8,1.6,2.7,2.5
			c-1.5-6.1-4.8-10.2-7.5-12.6c-2.7-2.4-5.1-3.6-5.9-3.9c-0.1,0.1-0.3,0.2-0.5,0.2C60.9,54.2,64.4,57.2,65.6,58.6z"/>
		<path fill="#893E31" d="M65.8,63.2c1.2,0.9,3.1,2.2,5.1,3.9c-0.2-1.2-0.5-2.4-1.1-3.3c-1.4-2-6.1-5.4-5.7-5.2s2.9,1.8,1.5,0
			c-1.2-1.5-4.7-4.4-5.9-5.4c-0.7,0.3-2.1,0.7-4.6,1.1c0,1.2,0,2.3,0.1,2.8c0.1,1.2,2.8,2.7,5.8,4.3c1,0.6,2.2,1.2,3.3,1.9
			c0.1-0.1,0.2-0.1,0.2-0.2C64.9,62.9,65.4,62.9,65.8,63.2z"/>
		<path fill="#893E31" d="M67.6,32.6c-0.4-3-1.9-5.2-2.6-6.2c0.1,1.3-0.1,2.4-0.3,3.3c-0.2,0.9-0.6,1.7-0.9,2.2c0.5-0.1,1-0.1,1.5,0
			c1.4,0.3,2.3,1.2,2.5,2.7c0.4,2.3-0.9,5.2-3,6.4c-0.7,0.5-1.5,0.6-2.2,0.6c-0.6,0-1.1-0.1-1.5-0.3c-0.2,0.9-0.3,1.8-0.5,2.6
			c-0.1,0.4-0.2,0.7-0.3,1.1c5.9-2.2,8.4-6.6,9.4-9.9c0.6-1.7,0.8-3.6,0.9-5.5C69.5,32.6,68,35.1,67.6,32.6z"/>
		<path fill="#893E31" d="M29.5,36.8c1.2,2.4,2.7,4,3.9,5.1c1.6,1.4,3.1,2.1,3.8,2.4c0-0.1-0.1-0.2-0.1-0.3
			c-0.2-0.8-0.4-1.7-0.5-2.6c-0.4,0.1-0.9,0.3-1.5,0.3c-0.7,0-1.4-0.2-2.2-0.6c-2-1.2-3.4-4.1-3-6.4c0.3-1.4,1.2-2.4,2.5-2.7
			c0,0,0.1,0,0.1,0c-0.9-1.2-1.6-2.5-2-3.6C30.2,29.4,29,32.2,29.5,36.8z"/>
		<path fill="#FFFF5A" d="M59.8,46.2c-1,1.9-2.5,3.6-4.6,4.8c0,0.7,0,1.5-0.1,2.3c3.4-0.5,4.4-1,4.6-1.2
			C60.3,50.7,60,47.5,59.8,46.2z"/>
		<path fill="#FCD5AC" d="M63.9,64.3c-1.2-0.7-2.3-1.3-3.4-1.9c-3.5-1.9-6.1-3.3-6.3-5.1c-0.1-0.6-0.1-1.8-0.1-3.1
			c-0.1,0-0.1,0.1-0.2,0.1c-3.1,1.5-6.7,1.5-9.7,0c-0.2-0.1-0.4-0.2-0.5-0.3c0,1.3,0,2.6-0.1,3.3c-0.2,1.8-2.8,3.2-6.3,5.1
			c-1.2,0.6-2.5,1.4-3.8,2.1c-0.1,7.1,2.2,12.9,4.9,17.2c2.1,2.4,5.8,6.2,7.8,7.5c2,1.2,2.7-1,2.7-1s0.3,2.7,3.5,0.5
			c1.8-1.2,5.1-5.3,7-7.6C61.9,76.8,64,71.2,63.9,64.3z"/>
		<path fill="#F6A789" d="M52.4,88.6c-3.2,2.3-3.5-0.5-3.5-0.5s-0.8,2.2-2.7,1c-2.1-1.2-5.7-5.1-7.8-7.5c0.9,1.4,1.8,2.6,2.7,3.7
			c3.5,4.2,7,6.6,7.7,7c0.6-0.4,4.2-2.8,7.7-7.1c1-1.2,2-2.7,3-4.3C57.5,83.3,54.2,87.4,52.4,88.6z"/>
		<path fill="#F6A789" d="M53.9,54.3c0.1,0,0.1-0.1,0.2-0.1c0-0.9,0-1.8,0.1-2.6c-0.1,0-0.1,0.1-0.2,0.1c-1.6,0.8-3.3,1.2-5.1,1.2
			c-1.7,0-3.5-0.4-5.1-1.2c-0.1-0.1-0.2-0.1-0.3-0.2c0,0.8,0,1.6,0.1,2.5c0.2,0.1,0.4,0.2,0.5,0.3C47.2,55.8,50.8,55.8,53.9,54.3z"
			/>
		<path fill="#FCD5AC" d="M39.3,46.2c-1.3-2.7-1.4-5.2-1.4-5.3c0,0,0-0.1,0-0.1c-1.3-2.2-2-4.9-2.3-6.4c-0.8-0.4-1.6-0.9-2.2-1.6
			c-0.2,0-0.4,0-0.7,0.1c-1.3,0.2-1.7,1.2-1.8,2c-0.3,1.7,0.6,4.4,2.5,5.5c0.5,0.3,0.9,0.4,1.4,0.5c-0.5-0.1-1-0.6-1-1.2
			c0-0.7,0.6-1.2,1.2-1.2c0.7,0,1.2,0.6,1.2,1.2c0,0.6-0.5,1.1-1.1,1.2c0.7,0,1.2-0.2,1.5-0.4c0.2-0.1,0.5,0,0.6,0.2c0,0,0,0,0,0.1
			c0,0,0,0,0,0c0.2,1.1,0.4,2.1,0.6,3.1c0.5,1.9,1.4,3.5,2.8,4.8C40.2,47.8,39.7,46.9,39.3,46.2z M35.7,37.9c-0.2,0.1-0.5,0-0.6-0.3
			c0-0.1-0.1-0.2-0.1-0.3c-0.4,0-0.8,0.1-1.1,0.6c-0.2,0.3-0.4,0.4-0.7,0.3c-0.1,0.1-0.1,0.1-0.2,0.1c0,0-0.1,0-0.1,0
			c-0.2,0-0.4-0.1-0.4-0.4c-0.2-0.8,0-1.6,0.6-2.3c0.4-0.4,1-0.8,1.4-0.8c0.2,0,0.6,0.1,1.5,2.2C36,37.5,35.9,37.8,35.7,37.9z"/>
		<path fill="#FCD5AC" d="M38.5,40c1.8-1.5,4.9-2.2,7.3-2.5c0.9-1.9,0.9-4.9,0.9-4.9c0-0.2,0.1-0.3,0.3-0.4c0.2,0,0.3,0.1,0.4,0.3
			c0,0.1,0.1,2.8-0.7,4.8c1.2-0.1,2.1-0.2,2.2-0.2c0,0,0,0,0,0c0.3,0,7.4,0.4,10.4,2.9c1.3-2.3,2-5.3,2.1-6.4c0,0,0,0,0,0
			c0.1-0.9,0.2-1.8,0.3-2.7c-0.5-0.6-1.2-1.3-2.3-1.5c-2-0.4-5.8-1.5-7.8-2.2c0.7,0.9,1.5,1.6,1.5,1.6c0.1,0.1,0.1,0.2,0.1,0.3
			c1.4-0.2,3.6-0.3,4.2,0.1c0.8,0.5,1.7,1.9,1.7,2.1c0,0.1-1.4-1.3-2.3-1.4c-0.9-0.2-4.1,0.3-4.5,0.4c-0.3,0-1.2-0.3-0.6-0.7
			c-6.6-1.1-12.5-4.7-14.2-5.8c-1,3.2,0.3,10.4,0.3,10.5c0,0.1,0,0.3-0.1,0.4c-0.1,0.1-0.2,0.1-0.3,0.1c0,0-0.1,0-0.1,0
			c-0.2,0-0.3-0.1-0.5-0.1C36.9,36.1,37.5,38.2,38.5,40z M53.9,31.7c0.7,0,1.2,0.8,1.2,1.7c0,0.9-0.5,1.7-1.2,1.7s-1.2-0.8-1.2-1.7
			C52.6,32.4,53.2,31.7,53.9,31.7z M43.8,35.1c-0.7,0-1.2-0.8-1.2-1.7c0-0.9,0.5-1.7,1.2-1.7c0.7,0,1.2,0.8,1.2,1.7
			C45,34.3,44.5,35.1,43.8,35.1z M40.7,29.3c0.8-0.5,4.8-0.1,5.4,0.1c1.2,0.4,0.1,0.8-0.3,0.8c-0.4,0-3.5-0.5-4.5-0.4
			c-0.9,0.2-2.2,1.6-2.3,1.4C39,31.3,39.9,29.8,40.7,29.3z"/>
		<path fill="#FCD5AC" d="M59.8,41c0,0.5-0.2,2.8-1.4,5.2c-0.5,1-1.1,2-2.1,3c1.8-1.5,2.9-3.3,3.5-5.4c0.2-0.9,0.4-1.8,0.6-2.8
			c0-0.1,0-0.2,0-0.4c0.1-0.2,0.4-0.3,0.6-0.2c0.1,0.1,0.3,0.1,0.6,0.2c-0.3-0.2-0.6-0.6-0.6-1c0-0.7,0.6-1.2,1.2-1.2
			c0.7,0,1.2,0.6,1.2,1.2c0,0.6-0.4,1.1-1,1.2c0.6,0,1.3,0,1.9-0.5c1.9-1.2,2.9-3.8,2.5-5.5c-0.1-0.8-0.6-1.7-1.8-2
			c-1.1-0.2-2.1,0-2.9,0.7C62.2,34.6,61.4,38.3,59.8,41z M61.7,37.3c0.9-2.1,1.3-2.2,1.5-2.2c0.4-0.1,1,0.4,1.4,0.8
			c0.6,0.6,0.8,1.4,0.6,2.3c0,0.2-0.2,0.4-0.4,0.4c0,0-0.1,0-0.1,0c-0.1,0-0.2-0.1-0.2-0.1c-0.2,0.1-0.5,0-0.7-0.3
			c-0.3-0.5-0.8-0.6-1.1-0.6c0,0.1-0.1,0.2-0.1,0.3c-0.1,0.2-0.4,0.3-0.6,0.3C61.8,37.8,61.7,37.5,61.7,37.3z"/>
		<path fill="#F6A789" d="M64.4,37.9c0.1-0.4,0-0.9-0.3-1.2c-0.2-0.4-0.6-0.6-0.7-0.6c-0.2,0.2-0.4,0.8-0.7,1.3
			c0.4,0,0.8,0.1,1.1,0.6c0.2,0.3,0.4,0.4,0.7,0.3C64.4,38.1,64.4,38,64.4,37.9z"/>
		<path fill="#58002A" d="M62,37.9c0.2,0.1,0.5,0,0.6-0.3c0-0.1,0.1-0.2,0.1-0.3c0.3-0.6,0.5-1.1,0.7-1.3c0.2,0.1,0.5,0.3,0.7,0.6
			c0.3,0.4,0.4,0.8,0.3,1.2c0,0.1,0,0.3,0.1,0.4c0.1,0.1,0.1,0.1,0.2,0.1c0,0,0.1,0,0.1,0c0.2,0,0.4-0.1,0.4-0.4
			c0.2-0.8,0-1.6-0.6-2.3c-0.4-0.4-1-0.8-1.4-0.8c-0.2,0-0.6,0.1-1.5,2.2C61.7,37.5,61.8,37.8,62,37.9z"/>
		<path fill="#F6A789" d="M47.4,32.6c0-0.2-0.2-0.3-0.4-0.3c-0.2,0-0.3,0.2-0.3,0.4c0,0,0.1,3-0.9,4.9c0.3,0,0.6-0.1,0.8-0.1
			C47.5,35.4,47.4,32.7,47.4,32.6z"/>
		<path fill="#70193B" d="M43.8,31.7c-0.7,0-1.2,0.8-1.2,1.7c0,0.9,0.5,1.7,1.2,1.7c0.7,0,1.2-0.8,1.2-1.7
			C45,32.4,44.5,31.7,43.8,31.7z"/>
		<path fill="#70193B" d="M53.9,35.1c0.7,0,1.2-0.8,1.2-1.7c0-0.9-0.5-1.7-1.2-1.7s-1.2,0.8-1.2,1.7C52.6,34.3,53.2,35.1,53.9,35.1z
			"/>
		<path fill="#90E9CD" d="M45.5,49.5c0.3,0,0.5,0,0.8,0c7.7-1,9.5-7.4,10-10.1c-3-1.1-7.1-1.3-7.4-1.4c-0.4,0-7.6,0.4-10,2.9
			c0.1,0.6,0.3,2.7,1.4,4.8c0.5,1.1,1.2,2,2,2.8C43.1,49,44.2,49.4,45.5,49.5z"/>
		<path fill="#7DD8BA" d="M46.2,49.5c-0.3,0-0.5,0-0.8,0c-1.3-0.2-2.3-0.5-3.3-0.9c1.6,1.7,3.7,2.7,6.4,3c0.2,0,0.4,0,0.7,0
			c3.9-0.5,6.7-2.5,8.4-5.9c1.1-2.1,1.3-4.2,1.3-4.8c-0.6-0.6-1.6-1.1-2.7-1.5C55.8,42.1,53.9,48.5,46.2,49.5z"/>
		<path fill="#F6A789" d="M33.5,36.6c-0.3,0.4-0.4,0.8-0.3,1.2c0,0.1,0,0.3-0.1,0.4c0.2,0.1,0.5,0,0.7-0.3c0.3-0.5,0.8-0.6,1.1-0.6
			c-0.3-0.6-0.5-1.1-0.7-1.3C34.1,36,33.8,36.3,33.5,36.6z"/>
		<path fill="#58002A" d="M34.4,35c-0.4-0.1-1,0.4-1.4,0.8c-0.6,0.6-0.8,1.4-0.6,2.3c0,0.2,0.2,0.4,0.4,0.4c0,0,0.1,0,0.1,0
			c0.1,0,0.2-0.1,0.2-0.1c0.1-0.1,0.1-0.2,0.1-0.4c-0.1-0.4,0-0.9,0.3-1.2c0.2-0.4,0.6-0.6,0.7-0.6c0.2,0.2,0.4,0.8,0.7,1.3
			c0,0.1,0.1,0.2,0.1,0.3c0.1,0.2,0.4,0.3,0.6,0.3c0.2-0.1,0.3-0.4,0.3-0.6C35.1,35.1,34.6,35.1,34.4,35z"/>
		<path fill="#70193B" d="M52.2,30.3c0.4,0,3.5-0.5,4.5-0.4c0.9,0.2,2.2,1.6,2.3,1.4c0-0.1-0.9-1.6-1.7-2.1
			c-0.6-0.3-2.7-0.2-4.2-0.1c0,0.1,0,0.2,0,0.2c-0.1,0.2-0.3,0.3-0.5,0.3c-0.4,0-0.7-0.1-1-0.1C50.9,30,51.8,30.3,52.2,30.3z"/>
		<path fill="#70193B" d="M45.7,30.3c0.4,0,1.5-0.4,0.3-0.8c-0.6-0.2-4.6-0.6-5.4-0.1c-0.8,0.5-1.7,1.9-1.7,2.1
			c0,0.1,1.4-1.3,2.3-1.4C42.2,29.8,45.3,30.3,45.7,30.3z"/>
		<circle fill="#FFFFFF" cx="35.1" cy="39.5" r="0.7"/>
		<path fill="#FFFFFF" d="M62.2,40.2c0.4,0,0.7-0.3,0.7-0.7c0-0.4-0.3-0.7-0.7-0.7c-0.4,0-0.7,0.3-0.7,0.7
			C61.5,39.9,61.8,40.2,62.2,40.2z"/>
		<path fill="#DF8EAB" d="M68.1,66.2c-0.1,5.3-1.1,10.1-3,14.4c-1.6,3.6-3.8,6.8-6.6,9.4c-1,0.9-1.9,1.7-2.9,2.4
			c1-0.2,1.9-0.3,2.7-0.5c0,0,0,0,0,0c0.2,0,0.3-0.1,0.5-0.1c0,0,0.1,0,0.1,0c0.3-0.1,0.6-0.2,0.9-0.3c0,0,0.1,0,0.1,0
			c0.1,0,0.3-0.1,0.4-0.1c0,0,0,0,0,0c0.1,0,0.3-0.1,0.4-0.1c0,0,0.1,0,0.1,0c0.1,0,0.2-0.1,0.4-0.1c0,0,0,0,0.1,0
			c6.7-2.4,8.8-6.2,9.3-7.6c-0.4-1.2-0.7-1.9-0.7-1.9c-0.1-0.3,0-0.6,0.2-0.7c0.3-0.1,0.6,0,0.7,0.2c0,0,0.2,0.5,0.5,1.3
			c1.4,1.2,2.4,2.9,3.2,4.7c1.7-0.9,3.2-1.9,4.5-3.1c-0.4-2.3-1.1-5.1-1.9-7.7C75.9,72.7,71.5,68.8,68.1,66.2z"/>
		<path fill="#DF8EAB" d="M26.4,82c0.2-0.7,0.4-1.1,0.4-1.1c0.1-0.3,0.4-0.4,0.7-0.2c0.3,0.1,0.4,0.4,0.2,0.7c0,0-0.3,0.5-0.6,1.4
			c0,0,0.1-0.1,0.1-0.1c0,0,0.9,5.9,9.5,8.8c0,0,0,0,0,0c0.1,0,0.3,0.1,0.4,0.1c0,0,0.1,0,0.1,0c0.3,0.1,0.6,0.2,0.9,0.2
			c0,0,0.1,0,0.1,0c0.1,0,0.3,0.1,0.5,0.1c0,0,0,0,0,0c0.1,0,0.3,0.1,0.5,0.1c1.1,0.2,2.2,0.4,3.5,0.6c-2.4-1.6-4.4-3.4-6.2-5.5
			c-2.5-2.9-4.3-6.3-5.5-10.1c-1.6-5.1-1.6-9.4-1.5-11.1c-3.4,2.6-8.1,6.6-9.2,10.2c-0.6,1.9-1.1,3.8-1.5,5.6
			c1.4,1.5,2.9,2.9,4.6,4.2C24.3,84,25.4,82.8,26.4,82z"/>
		<path fill="#DF8EAB" d="M47.6,92.9c-1.3-0.9-4.3-3.2-7.4-6.9c-2.3-2.8-4.1-5.9-5.4-9c-1.6-4-2.4-8.2-2.4-12.6
			c0-0.2-0.1-0.3-0.2-0.3c-0.1,0-0.2-0.1-0.3,0c-0.4,0.3-0.8,0.6-1.3,1c0,0,0,0.1,0,0.1c0,0.1-0.6,5.3,1.4,11.6
			c2.2,7,6.6,12.4,12.9,16.1C45.7,92.9,46.6,92.9,47.6,92.9z"/>
		<path fill="#DF8EAB" d="M57.9,89.1c4.2-4,9.2-11.3,9.2-23.7c-0.7-0.5-1.4-1-1.9-1.3C65.1,64,65,64,65,64c0,0-0.1,0.1-0.1,0.2
			c0.1,4.4-0.7,8.7-2.3,12.7c-1.3,3.2-3.1,6.3-5.5,9.1c-3,3.7-6,6-7.4,6.9c1.3-0.1,2.5-0.1,3.6-0.3C54.8,91.8,56.3,90.6,57.9,89.1z"
			/>
		<path fill="#CA6E87" d="M26.4,82c-1,0.7-2.1,1.9-3.1,3.9c0.6,0.5,1.3,0.9,2,1.3c0-0.5,0.1-1,0.2-1.4C25.7,84.2,26.1,82.9,26.4,82z
			"/>
		<path fill="#CA6E87" d="M71.3,82.2c0.3,0.9,0.7,2.1,0.9,3.7c0.1,0.6,0.2,1.2,0.2,1.9c0.1,0,0.2-0.1,0.2-0.1
			c0.6-0.3,1.2-0.5,1.8-0.8C73.7,85.1,72.7,83.4,71.3,82.2z"/>
		<path fill="#CA6E87" d="M70.6,83.3c-0.6,1.4-2.6,5.2-9.3,7.6c0,0,0,0-0.1,0C61.1,91,61,91,60.8,91c0,0-0.1,0-0.1,0
			c-0.1,0-0.3,0.1-0.4,0.1c0,0,0,0,0,0c-0.1,0-0.3,0.1-0.4,0.1c0,0-0.1,0-0.1,0c-0.3,0.1-0.6,0.2-0.9,0.3c0,0-0.1,0-0.1,0
			c-0.2,0-0.3,0.1-0.5,0.1c0,0,0,0,0,0c-0.8,0.2-1.7,0.4-2.7,0.5c0,0-0.1,0.1-0.1,0.1c5.1-0.7,10.4-2.1,15.9-4.2
			c0-0.8-0.1-1.5-0.2-2.1C71,85,70.8,84,70.6,83.3z"/>
		<path fill="#CA6E87" d="M39.2,92.1c-0.2,0-0.3-0.1-0.5-0.1c0,0,0,0,0,0c-0.2,0-0.3-0.1-0.5-0.1c0,0-0.1,0-0.1,0
			c-0.3-0.1-0.6-0.2-0.9-0.2c0,0-0.1,0-0.1,0c-0.1,0-0.3-0.1-0.4-0.1c0,0,0,0,0,0c-8.7-2.8-9.5-8.8-9.5-8.8c0,0-0.1,0.1-0.1,0.1
			c-0.3,0.8-0.6,1.9-0.8,3.2c-0.1,0.5-0.1,1.1-0.2,1.8c4.7,2.7,10.3,4.4,16.6,5c-0.1,0-0.1-0.1-0.2-0.1
			C41.4,92.5,40.3,92.3,39.2,92.1z"/>
		<path fill="#CA6E87" d="M44.9,92.9c0,0,0.1,0,0.1,0.1c0.9,0,1.7,0.1,2.6,0.1c0,0,0,0-0.1,0C46.6,92.9,45.7,92.9,44.9,92.9z"/>
		<path fill="#CA6E87" d="M49.8,92.9C49.7,92.9,49.7,92.9,49.8,92.9c1.1,0,2.3-0.1,3.5-0.2c0,0,0.1,0,0.1-0.1
			C52.3,92.7,51,92.8,49.8,92.9z"/>
		<path fill="#58002A" d="M27.2,82.8c0.3-0.9,0.6-1.4,0.6-1.4c0.1-0.3,0-0.6-0.2-0.7c-0.3-0.1-0.6,0-0.7,0.2c0,0-0.2,0.4-0.4,1.1
			c-0.3,0.9-0.7,2.2-1,3.8c-0.1,0.4-0.1,0.9-0.2,1.4c0.3,0.2,0.6,0.4,1,0.6c0-0.6,0.1-1.2,0.2-1.8C26.7,84.7,27,83.6,27.2,82.8z"/>
		<path fill="#58002A" d="M71.3,82.2c-0.3-0.8-0.5-1.2-0.5-1.3c-0.1-0.3-0.4-0.4-0.7-0.2c-0.3,0.1-0.4,0.4-0.2,0.7
			c0,0,0.3,0.7,0.7,1.9c0.2,0.7,0.5,1.7,0.6,2.8c0.1,0.6,0.2,1.4,0.2,2.1c0.3-0.1,0.7-0.3,1-0.4c0-0.7-0.1-1.4-0.2-1.9
			C72,84.3,71.6,83.1,71.3,82.2z"/>
		<path fill="#58002A" d="M74.8,70.8c-1.3-7.2-5.1-11.9-8.1-14.6c-2.6-2.4-5.1-3.6-6-4c0.5-1.9,0.1-5.2-0.1-6.4
			c4.9-1.9,8.3-5.5,9.9-10.4c1-3.1,1.2-6.7,0.7-10.2c-0.5-3.4-1.7-6.6-3.4-9c-4-5.7-8.2-5.8-9.2-5.7C56,8.3,52.5,7.1,48.4,7
			c-3.6,0-7.5,0.8-10.9,2.3c-3.5,1.5-6.5,4.4-8.4,7.9c-2.3,4.2-3,9.1-2.1,14.2c1,5.8,3.8,9.3,6,11.1c2.4,2,4.5,2.7,4.6,2.7
			c0.1,0,0.1,0,0.2,0c0.9,2.3,2.5,4.2,4.8,5.6c0.1,2,0.2,5.1,0,6.2c-0.1,1.2-2.8,2.7-5.8,4.3c-1.1,0.6-2.4,1.3-3.7,2.1
			c-0.1-0.1-0.2-0.2-0.4-0.3c-0.4-0.2-1-0.2-1.4,0.1c-3.1,2.2-10.5,7.7-12,12.4c-0.5,1.6-1,3.4-1.4,5c0.3,0.3,0.5,0.7,0.8,1
			c0.4-1.8,0.9-3.8,1.5-5.6c1.1-3.5,5.8-7.6,9.2-10.2c-0.1,1.7-0.1,6.1,1.5,11.1c1.2,3.8,3.1,7.2,5.5,10.1c1.8,2.1,3.8,3.9,6.2,5.5
			c0.1,0,0.1,0.1,0.2,0.1c0.7,0.1,1.4,0.1,2.1,0.1c0,0-0.1,0-0.1-0.1c-6.4-3.7-10.7-9.1-12.9-16.1c-2-6.3-1.4-11.5-1.4-11.6
			c0,0,0-0.1,0-0.1c0.5-0.4,1-0.7,1.3-1c0.1-0.1,0.3,0,0.3,0c0.1,0,0.2,0.1,0.2,0.3c-0.1,4.4,0.7,8.6,2.4,12.6
			c1.3,3.2,3.1,6.2,5.4,9c3.1,3.7,6.1,6,7.4,6.9c0,0,0,0,0.1,0c0.7,0,1.4,0,2.1,0c0,0,0,0,0.1,0c1.3-0.9,4.3-3.2,7.4-6.9
			c2.3-2.8,4.2-5.9,5.5-9.1c1.6-4,2.4-8.3,2.3-12.7c0-0.1,0.1-0.2,0.1-0.2c0,0,0.1-0.1,0.2,0c0.5,0.4,1.2,0.8,1.9,1.3
			c-0.1,12.4-5,19.8-9.2,23.7c-1.6,1.5-3.1,2.6-4.5,3.5c0,0-0.1,0-0.1,0.1c0.8-0.1,1.5-0.2,2.3-0.3c0,0,0.1-0.1,0.1-0.1
			c0.9-0.7,1.9-1.5,2.9-2.4c2.8-2.6,5-5.8,6.6-9.4c1.9-4.2,2.8-9,3-14.4c3.4,2.6,7.8,6.5,8.9,9.9c0.9,2.6,1.5,5.4,1.9,7.7
			c0.3-0.3,0.6-0.6,0.9-0.8c-0.4-2.2-1-4.7-1.8-7.2C77.5,74.1,76.3,72.4,74.8,70.8z M59.4,81c-1,1.7-2,3.1-3,4.3
			c-3.5,4.3-7.1,6.7-7.7,7.1c-0.6-0.4-4.2-2.8-7.7-7c-0.9-1.1-1.8-2.3-2.7-3.7c-2.6-4.2-5-10-4.9-17.2c1.3-0.8,2.6-1.5,3.8-2.1
			c3.5-1.9,6.1-3.3,6.3-5.1c0.1-0.6,0.1-1.9,0.1-3.3c0-0.8,0-1.7-0.1-2.5c0.1,0.1,0.2,0.1,0.3,0.2c1.6,0.8,3.3,1.2,5.1,1.2
			c1.7,0,3.5-0.4,5.1-1.2c0.1,0,0.1-0.1,0.2-0.1c0,0.8,0,1.7-0.1,2.6c0,1.3,0,2.5,0.1,3.1c0.2,1.8,2.8,3.2,6.3,5.1
			c1.1,0.6,2.2,1.2,3.4,1.9C64,71.2,61.9,76.8,59.4,81z M58.1,11.3c0.1,0.1,0.2,0.1,0.4,0.1c0,0,1.1-0.2,2.7,0.4
			c1.5,0.5,3.7,1.8,5.8,4.9c2.4,3.5,3.7,8.4,3.5,13c-0.1,1.9-0.4,3.8-0.9,5.5c-1.1,3.3-3.6,7.7-9.4,9.9c0.1-0.3,0.2-0.7,0.3-1.1
			c0.2-0.8,0.4-1.7,0.5-2.6c0.4,0.1,0.9,0.3,1.5,0.3c0.7,0,1.4-0.1,2.2-0.6c2-1.2,3.4-4.1,3-6.4c-0.3-1.4-1.2-2.4-2.5-2.7
			c-0.5-0.1-1-0.1-1.5,0c0.3-0.5,0.6-1.3,0.9-2.2c0.2-0.9,0.4-2,0.3-3.3c-0.1-1.5-0.5-3.3-1.5-5.4c-0.1-0.2-0.4-0.3-0.6-0.2
			s-0.3,0.4-0.2,0.6c0.3,0.6,0.5,1.2,0.7,1.7c0.9,2.7,0.8,4.8,0.4,6.3c-0.2,1-0.6,1.7-0.9,2.2c-0.5-1-1.5-2.5-3.5-2.9
			c-2.7-0.5-9-2.6-9.1-2.6c-0.2-0.1-0.4,0-0.5,0.2c-0.1,0.2-0.1,0.4,0,0.5c0.4,0.6,1.1,1.4,1.6,1.9c-5.5-1-10.7-3.8-12.9-5.2
			c-0.7-0.5-1.2-0.7-1.2-0.8c-0.1-0.1-0.2-0.1-0.4-0.1c-0.1,0-0.2,0.1-0.3,0.2c-0.4,0.8-0.5,1.9-0.6,3.1c-0.2,2.8,0.3,6.3,0.6,7.7
			c-3-1-4.6-4.5-5.3-6.5c-0.3-0.9-0.4-1.5-0.4-1.5c-0.1-0.2-0.3-0.4-0.5-0.3c-0.2,0.1-0.4,0.3-0.3,0.5c0,0.1,0.2,1.1,0.7,2.3
			c0.4,1.1,1.1,2.4,2,3.6c0,0-0.1,0-0.1,0c-1.4,0.3-2.3,1.2-2.5,2.7c-0.4,2.3,0.9,5.2,3,6.4c0.8,0.5,1.5,0.6,2.2,0.6
			c0.6,0,1.1-0.1,1.5-0.3c0.2,0.9,0.3,1.8,0.5,2.6c0,0.1,0.1,0.2,0.1,0.3c-0.7-0.3-2.2-1-3.8-2.4c-1.3-1.1-2.7-2.7-3.9-5.1
			c-0.8-1.5-1.4-3.3-1.8-5.5c-1.9-10.6,3.9-18.4,10-21.2C44,7.4,53,6.6,58.1,11.3z M35.1,40.2c-0.4,0-0.7-0.3-0.7-0.7
			c0-0.4,0.3-0.7,0.7-0.7c0.4,0,0.7,0.3,0.7,0.7C35.8,39.9,35.5,40.2,35.1,40.2z M40.1,45.8c-1.1-2.1-1.3-4.2-1.4-4.8
			c2.4-2.5,9.6-2.9,10-2.9c0.3,0,4.3,0.2,7.4,1.4c1.1,0.4,2,0.9,2.7,1.5c0,0.6-0.3,2.7-1.3,4.8c-1.7,3.4-4.5,5.4-8.4,5.9
			c-0.2,0-0.4,0-0.7,0c-2.6-0.3-4.7-1.4-6.4-3C41.4,47.8,40.7,46.9,40.1,45.8z M62.3,33.5c0.8-0.7,1.7-0.9,2.9-0.7
			c1.3,0.2,1.7,1.2,1.8,2c0.3,1.7-0.6,4.4-2.5,5.5c-0.7,0.4-1.4,0.5-1.9,0.5c0.5-0.1,1-0.6,1-1.2c0-0.7-0.6-1.2-1.2-1.2
			c-0.7,0-1.2,0.6-1.2,1.2c0,0.4,0.2,0.8,0.6,1c-0.2-0.1-0.4-0.2-0.6-0.2c-0.2-0.1-0.5,0-0.6,0.2c-0.1,0.1-0.1,0.2,0,0.4
			c-0.2,1-0.4,1.9-0.6,2.8c-0.5,2.1-1.7,4-3.5,5.4c0.9-1,1.6-2,2.1-3c1.2-2.4,1.4-4.7,1.4-5.2C61.4,38.3,62.2,34.6,62.3,33.5z
			 M61.5,39.5c0-0.4,0.3-0.7,0.7-0.7c0.4,0,0.7,0.3,0.7,0.7c0,0.4-0.3,0.7-0.7,0.7C61.8,40.2,61.5,39.9,61.5,39.5z M55.2,51
			c2.1-1.3,3.6-2.9,4.6-4.8c0.2,1.3,0.6,4.5,0,6c-0.2,0.2-1.2,0.7-4.6,1.2C55.1,52.6,55.2,51.8,55.2,51z M36.6,34.7
			c0.2,0,0.3,0.1,0.5,0.1c0,0,0.1,0,0.1,0c0.1,0,0.2,0,0.3-0.1c0.1-0.1,0.2-0.3,0.1-0.4c0-0.1-1.3-7.2-0.3-10.5
			c1.7,1.1,7.6,4.8,14.2,5.8c0.3,0.1,0.7,0.1,1,0.1c0.2,0,0.4-0.1,0.5-0.3c0-0.1,0-0.2,0-0.2c0-0.1-0.1-0.2-0.1-0.3
			c0,0-0.8-0.8-1.5-1.6c2,0.6,5.8,1.8,7.8,2.2c1.1,0.2,1.8,0.8,2.3,1.5c-0.1,0.9-0.2,1.7-0.3,2.7c0,0,0,0,0,0
			c-0.1,1.1-0.8,4.1-2.1,6.4c-2.9-2.6-10.1-2.9-10.4-2.9c0,0,0,0,0,0c-0.1,0-1,0-2.2,0.2c-0.3,0-0.5,0.1-0.8,0.1
			c-2.3,0.3-5.5,1.1-7.3,2.5C37.5,38.2,36.9,36.1,36.6,34.7z M38.1,43.7c-0.2-1-0.5-2-0.6-3.1c0,0,0,0,0,0c0,0,0,0,0-0.1
			c-0.1-0.2-0.4-0.3-0.6-0.2c-0.3,0.1-0.8,0.3-1.5,0.4c0.6-0.1,1.1-0.6,1.1-1.2c0-0.7-0.6-1.2-1.2-1.2c-0.7,0-1.2,0.6-1.2,1.2
			c0,0.6,0.4,1.1,1,1.2c-0.4,0-0.9-0.2-1.4-0.5c-1.9-1.2-2.9-3.8-2.5-5.5c0.1-0.8,0.6-1.7,1.8-2c0.2,0,0.5-0.1,0.7-0.1
			c0.6,0.6,1.4,1.2,2.2,1.6c0.3,1.5,1,4.2,2.3,6.4c0,0,0,0.1,0,0.1c0,0.1,0.1,2.6,1.4,5.3c0.4,0.8,0.9,1.6,1.5,2.4
			C39.5,47.2,38.5,45.6,38.1,43.7z M60.9,61.5c-3-1.7-5.6-3.1-5.8-4.3c-0.1-0.6-0.1-1.7-0.1-2.8c2.6-0.4,3.9-0.8,4.6-1.1
			c0.2-0.1,0.4-0.2,0.5-0.2c0.7,0.3,3.2,1.6,5.9,3.9c2.7,2.4,6.1,6.5,7.5,12.6c-0.9-0.9-1.8-1.7-2.7-2.5c-2-1.7-3.9-3-5.1-3.9
			c-0.4-0.3-0.9-0.3-1.3-0.1c-0.1,0-0.2,0.1-0.2,0.2C63.1,62.7,62,62,60.9,61.5z"/>
		<path fill="#893E31" d="M60.7,27c-3.5-2.7-14.6-3.9-14.6-3.9l0.9,2.7c-1.8-0.5-6.2-1.7-8.5-2.3c2.2,1.4,7.3,4.3,12.9,5.2
			c-0.5-0.6-1.1-1.3-1.6-1.9c-0.1-0.2-0.1-0.4,0-0.5c0.1-0.2,0.3-0.2,0.5-0.2c0.1,0,6.3,2.1,9.1,2.6c2.1,0.4,3.1,1.9,3.5,2.9
			c0.3-0.5,0.6-1.2,0.9-2.2c0.4-1.4,0.5-3.6-0.4-6.3C62.9,25,60.7,27,60.7,27z"/>
		<path fill="#893E31" d="M34.2,29.1c-1.6-0.8-2.5-1.5-2.9-1.9c0.7,2,2.3,5.5,5.3,6.5c-0.2-1.4-0.7-4.9-0.6-7.7L34.2,29.1z"/>
	</g>
</g>
</svg>
