<?xml version="1.0" encoding="utf-8"?>
<!-- Generator: Adobe Illustrator 22.0.1, SVG Export Plug-In . SVG Version: 6.00 Build 0)  -->
<svg version="1.1" id="Layer_1" xmlns="http://www.w3.org/2000/svg" xmlns:xlink="http://www.w3.org/1999/xlink" x="0px" y="0px"
	 width="100px" height="100px" viewBox="0 0 100 100" enable-background="new 0 0 100 100" xml:space="preserve">
<g>
	<path fill="#5AAAF9" d="M49.8,16.3c-13.7,0-31.1,13.3-36.7,35.8c-8.3,33.5,23.6,50.2,59.5,35.7C104.8,74.7,81.9,16.2,49.8,16.3z"/>
	<g>
		<path fill="#A65340" d="M30.2,24.4c0.2,1.6,0.3,4,1.7,1.9s1.9-1.7,1.8-0.2s2.7,0.8,4.7,0c0.6-0.2,0.8-0.2,1-0.1
			c1.2-1.7,2.2-3.6,2.2-5.3c0-0.2,0.1-0.3,0.3-0.4c0.2-0.1,0.4,0,0.5,0.1c0.1,0.1,5.1,5.1,10.7,5.7c2.9,0.3,5,1.2,6.5,2.3
			c-1.3-2.1,0.4-1.7,2.2-0.6c2.2,1.3,2.2-1,0.5-3.2s1.5,0.4,3.9,1.3c2.4,0.9,0-0.9,0-2.3c0-0.7,1,1.2,2,3.2c0.2-1.6,0.2-3-0.3-4.4
			c-0.8-2.6-2.8-4.7-6.1-6.3c-2.2-1.1-4.1-2.4-5.8-3.7c-3-2.1-5.5-3.9-9.2-4.4C41,7.3,36.1,13.1,36,13.1c-0.1,0.1-0.2,0.1-0.3,0.2
			c-1.7,0.2-3.5,3.7-4.9,6.5c-0.5,0.9-0.9,1.8-1.3,2.6c-0.6,1.1-0.7,2.4-0.5,3.8C29.5,24.7,30.1,23.7,30.2,24.4z"/>
		<path fill="#A65340" d="M62.2,33C62.2,33,62.2,33,62.2,33C62.2,33,62.2,33,62.2,33C62.2,33.1,62.2,33.1,62.2,33z"/>
		<path fill="#D33356" d="M39.6,57c0.6,0.4,1.5,1,2.5,1.7c0.1-0.2,0.2-0.4,0.3-0.6c0-0.3,0.1-0.8,0.1-1.3l-2.5,0L39.6,57z"/>
		<path fill="#D33356" d="M55,58.1c0,0.3,0.2,0.6,0.5,0.9c1-0.9,1.9-1.6,2.7-2.3l-3.2,0C54.9,57.3,54.9,57.8,55,58.1z"/>
		<path fill="#FCD5AC" d="M43.9,55.2c-0.2-0.1-0.4-0.2-0.5-0.3c0,1.3,0,2.6-0.1,3.3c0,0.4-0.2,0.7-0.5,1.1c2,1.5,4.3,3.3,6,5.2
			c1.9-1.6,4-3.4,5.8-4.9c-0.4-0.5-0.7-0.9-0.7-1.4c-0.1-0.6-0.1-1.8-0.1-3.1c-0.1,0-0.1,0.1-0.2,0.1C50.6,56.8,47,56.8,43.9,55.2z"
			/>
		<path fill="#F6A789" d="M43.9,55.2c3.1,1.5,6.7,1.5,9.7,0c0.1,0,0.1-0.1,0.2-0.1c0-0.9,0-1.8,0.1-2.6c-0.1,0-0.2,0.1-0.2,0.1
			c-1.6,0.8-3.3,1.2-5.1,1.2c-1.7,0-3.5-0.4-5.1-1.2c-0.1,0-0.2-0.1-0.2-0.1c0,0.8,0,1.6,0.1,2.4C43.6,55,43.7,55.2,43.9,55.2z"/>
		<path fill="#CDBA6C" d="M64.7,65.1c-0.4,0.5-1.1,1.3-2.3,2.4c-1.9,1.8-4.2,3.7-5.8,5c-0.3,0.3-0.7,0.5-1,0.8c1.2,2,2,3.9,2.5,5.5
			c0.8,3,1.2,6.6,1.4,9.6c6.8-1.7,8.7-4.9,9.1-6.6c-0.4-3-0.8-5-0.8-5.1c-0.1-0.3,0.1-0.5,0.4-0.6c0.3-0.1,0.5,0.1,0.6,0.4
			c0,0,0.3,1.5,0.6,3.7c0.5,1.4,1.4,3.9,2,7.9c0.4-0.2,0.8-0.3,1.2-0.5c1.8-0.7,3.3-1.6,4.8-2.7c-0.5-6.9-1.7-11.4-3.5-13
			C70.9,69.2,67.6,66.9,64.7,65.1z"/>
		<path fill="#CDBA6C" d="M28.6,76.7c0.1-0.3,0.3-0.5,0.6-0.4c0.3,0.1,0.5,0.3,0.4,0.6c0,0-0.4,2.1-0.8,5.1
			c0.6,2.4,3.7,7.3,18.6,7.7c0.2-3,0.1-6.6-1-10.1c-0.9-0.1-1.4-1.1-1.8-1.9c-0.3-0.7-0.7-1.5-1.2-1.6c-1.2-0.3-2.5-1.4-3-2.5
			c-0.3-0.7-0.3-1.3-0.1-1.8c0-0.1,0.1-0.1,0.1-0.2c0,0,0.1-0.1,0.2-0.2c-0.6-0.4-2-1.4-4.2-3.1c-0.4-0.3-0.9-0.7-1.3-1
			c-1-0.7-1.9-1.5-2.6-2.3c-2.9,1.8-6.3,4.2-9.4,7.1c-1.6,1.5-2.7,5.3-3.3,11c1.7,1.7,3.7,3.3,5.9,4.6c0.7-4.3,1.7-6.7,2.2-7.8
			C28.4,77.9,28.6,76.7,28.6,76.7z"/>
		<path fill="#B59945" d="M47.4,89.6c-14.9-0.3-18-5.3-18.6-7.7c-0.3,2-0.5,4.3-0.7,6.9c5.4,2.7,11.9,4.1,19,4.2c0-0.1,0-0.1,0-0.2
			C47.2,91.9,47.4,90.8,47.4,89.6z"/>
		<path fill="#B59945" d="M59.5,88.6c0.1,1.2,0.1,2.2,0.1,3.1c3.2-0.6,6.4-1.5,9.7-2.7c-0.2-2.6-0.4-5.1-0.7-7.1
			C68.1,83.7,66.3,86.9,59.5,88.6z"/>
		<path fill="#B59945" d="M25.9,87.7c0.4,0.2,0.8,0.5,1.2,0.7c0.2-3.4,0.6-6.4,0.9-8.5C27.6,80.9,26.7,83.4,25.9,87.7z"/>
		<path fill="#B59945" d="M70.3,88.7c0.4-0.1,0.8-0.3,1.1-0.4c-0.6-4-1.5-6.5-2-7.9C69.7,82.5,70.1,85.4,70.3,88.7z"/>
		<path fill="#58002A" d="M68.8,76.7c-0.1-0.3-0.3-0.5-0.6-0.4c-0.3,0.1-0.5,0.3-0.4,0.6c0,0,0.4,2.1,0.8,5.1c0.3,2,0.5,4.4,0.7,7.1
			c0.3-0.1,0.7-0.2,1-0.4c-0.2-3.2-0.6-6.1-0.9-8.3C69.1,78.1,68.8,76.7,68.8,76.7z"/>
		<path fill="#FCD5AC" d="M38.3,40.9c1.8-1.5,4.9-2.2,7.3-2.5c0.9-1.9,0.9-4.9,0.9-4.9c0-0.2,0.1-0.3,0.3-0.4c0.2,0,0.3,0.1,0.4,0.3
			c0,0.1,0.1,2.8-0.7,4.8c1.2-0.1,2.1-0.2,2.2-0.2c0,0,0,0,0,0c0.3,0,7.4,0.4,10.4,2.9c1.2-2.3,1.9-5.5,2.1-6.9
			c0-0.2,0.1-0.4,0.1-0.6c0,0,0,0,0,0c0.1-0.7,0.1-1.5,0.2-2.1c-0.2-0.3-0.5-0.7-0.8-1.1c-1.8-2-4.4-3.2-7.7-3.6
			c-4.7-0.5-8.9-3.9-10.6-5.3c-0.7,4-5.1,8.5-5.9,9.3l-0.3,2.9c0,0.1,0,0.2,0,0.3c0,0,0,0,0,0c0,0.1,0,0.2,0,0.4
			C36.4,35.7,37,38.6,38.3,40.9z M54.9,34.3c0,0.9-0.5,1.7-1.2,1.7s-1.2-0.8-1.2-1.7c0-0.9,0.5-1.7,1.2-1.7S54.9,33.4,54.9,34.3z
			 M54.6,29.5c2.5,0.7,4.2,2.7,4.2,2.7S56,31.4,54.6,31c-0.8-0.2-2.8-0.6-2.9-1.1C51.5,29.1,52.6,28.9,54.6,29.5z M42.7,29.5
			c2-0.6,3.1-0.4,3,0.4c-0.1,0.5-2.1,0.9-2.9,1.1c-1.4,0.4-4.3,1.1-4.3,1.1S40.2,30.2,42.7,29.5z M43.6,32.6c0.7,0,1.2,0.8,1.2,1.7
			c0,0.9-0.5,1.7-1.2,1.7c-0.7,0-1.2-0.8-1.2-1.7C42.4,33.4,42.9,32.6,43.6,32.6z"/>
		<path fill="#FCD5AC" d="M41,49.8c-0.8-0.9-1.4-1.8-1.8-2.7c-1.3-2.7-1.4-5.2-1.4-5.3c0,0,0-0.1,0-0.1c-1.6-2.7-2.3-6.2-2.4-7.3
			c-0.7-0.5-1.4-0.9-2.8-0.6c-0.1,0-0.2,0.1-0.3,0.1c-0.2,0.1-0.3,0.1-0.5,0.2c-0.6,0.4-0.9,1.1-1,1.6c-0.3,1.7,0.6,4.4,2.5,5.5
			c1.4,0.9,2.8,0.4,3.3,0.1c0.2-0.1,0.5,0,0.6,0.2c0,0,0,0,0,0.1c0,0,0,0,0,0c0.2,1.1,0.4,2.1,0.6,3.1C38.3,46.7,39.4,48.4,41,49.8z
			 M35.5,38.6c-0.2,0.1-0.5,0-0.6-0.3c0-0.1-0.1-0.2-0.1-0.3c-0.4,0-0.8,0.1-1.1,0.6C33.5,39,33.2,39.1,33,39
			c-0.1,0.1-0.1,0.1-0.2,0.1c0,0-0.1,0-0.1,0c-0.2,0-0.4-0.1-0.4-0.4c-0.2-0.8,0-1.6,0.6-2.3c0.4-0.4,1-0.8,1.4-0.8
			c0.2,0,0.6,0.1,1.5,2.2C35.9,38.3,35.8,38.5,35.5,38.6z"/>
		<path fill="#FCD5AC" d="M66.6,35.7c-0.1-0.8-0.6-1.7-1.8-2c-1.5-0.3-2.2,0.1-2.7,0.5c0,0,0,0.1,0,0.1c-0.3,1.7-1,5.1-2.5,7.6
			c0,0.5-0.2,2.8-1.4,5.2c-0.4,0.8-0.9,1.6-1.6,2.4c1.2-1.2,2.3-2.8,2.9-4.9c0.2-0.9,0.5-1.8,0.7-2.8c0-0.1,0-0.2,0-0.4
			c0.1-0.2,0.4-0.3,0.6-0.2c0.5,0.2,1.9,0.7,3.3-0.1C65.9,40,66.9,37.4,66.6,35.7z M64.6,39.2c-0.1,0-0.2-0.1-0.2-0.1
			c-0.2,0.1-0.5,0-0.7-0.3c-0.3-0.5-0.8-0.6-1.1-0.6c0,0.1-0.1,0.2-0.1,0.3c-0.1,0.2-0.4,0.3-0.6,0.3c-0.2-0.1-0.3-0.4-0.3-0.6
			c0.9-2.1,1.3-2.2,1.5-2.2c0.4-0.1,1,0.4,1.4,0.8c0.6,0.6,0.8,1.4,0.6,2.3C65.1,39,64.9,39.2,64.6,39.2
			C64.6,39.2,64.6,39.2,64.6,39.2z"/>
		<path fill="#F6A789" d="M47.2,33.5c0-0.2-0.2-0.3-0.4-0.3c-0.2,0-0.3,0.2-0.3,0.4c0,0,0.1,3-0.9,4.9c0.3,0,0.6-0.1,0.8-0.1
			C47.3,36.3,47.2,33.6,47.2,33.5z"/>
		<path fill="#70193B" d="M45.6,29.9c0.2-0.8-1-1-3-0.4c-2.5,0.7-4.2,2.7-4.2,2.7s2.9-0.8,4.3-1.1C43.6,30.8,45.5,30.5,45.6,29.9z"
			/>
		<path fill="#70193B" d="M54.6,31c1.4,0.4,4.3,1.1,4.3,1.1s-1.8-1.9-4.2-2.7c-2-0.6-3.1-0.4-3,0.4C51.7,30.5,53.7,30.8,54.6,31z"/>
		<path fill="#70193B" d="M43.6,36c0.7,0,1.2-0.8,1.2-1.7c0-0.9-0.5-1.7-1.2-1.7c-0.7,0-1.2,0.8-1.2,1.7C42.4,35.2,42.9,36,43.6,36z
			"/>
		<path fill="#70193B" d="M53.7,32.6c-0.7,0-1.2,0.8-1.2,1.7c0,0.9,0.5,1.7,1.2,1.7s1.2-0.8,1.2-1.7C54.9,33.4,54.3,32.6,53.7,32.6z
			"/>
		<path fill="#90E9CD" d="M42,49.6c1,0.4,2.1,0.7,3.3,0.9c0.3,0,0.5,0,0.8,0c7.7-1,9.5-7.4,10-10.1C53,39.3,49,39,48.6,39
			c-0.4,0-7.6,0.4-10,2.9c0.1,0.6,0.3,2.7,1.4,4.8C40.5,47.8,41.2,48.8,42,49.6z"/>
		<path fill="#7DD8BA" d="M46,50.5c-0.3,0-0.5,0-0.8,0C44,50.3,42.9,50,42,49.6c1.6,1.7,3.7,2.7,6.4,3c0.2,0,0.4,0,0.7,0
			c3.9-0.5,6.7-2.5,8.4-5.9c1.1-2.1,1.3-4.2,1.3-4.8c-0.6-0.6-1.6-1.1-2.7-1.5C55.6,43.1,53.7,49.5,46,50.5z"/>
		<path fill="#F6A789" d="M64.2,38.6c0.1-0.4,0-0.9-0.3-1.2c-0.2-0.4-0.6-0.6-0.7-0.6c-0.2,0.2-0.4,0.8-0.7,1.3
			c0.4,0,0.8,0.1,1.1,0.6c0.2,0.3,0.4,0.4,0.7,0.3C64.3,38.9,64.2,38.8,64.2,38.6z"/>
		<path fill="#58002A" d="M65.1,38.8c0.2-0.8,0-1.6-0.6-2.3c-0.4-0.4-1-0.8-1.4-0.8c-0.2,0-0.6,0.1-1.5,2.2c-0.1,0.2,0,0.5,0.3,0.6
			c0.2,0.1,0.5,0,0.6-0.3c0-0.1,0.1-0.2,0.1-0.3c0.3-0.6,0.5-1.1,0.7-1.3c0.2,0.1,0.5,0.3,0.7,0.6c0.3,0.4,0.4,0.8,0.3,1.2
			c0,0.1,0,0.3,0.1,0.4c0.1,0.1,0.1,0.1,0.2,0.1c0,0,0.1,0,0.1,0C64.9,39.2,65.1,39,65.1,38.8z"/>
		<path fill="#F6A789" d="M33.4,37.4c-0.3,0.4-0.4,0.8-0.3,1.2c0,0.1,0,0.3-0.1,0.4c0.2,0.1,0.5,0,0.7-0.3c0.3-0.5,0.8-0.6,1.1-0.6
			c-0.3-0.6-0.5-1.1-0.7-1.3C34,36.8,33.6,37,33.4,37.4z"/>
		<path fill="#58002A" d="M35.8,38c-0.9-2.1-1.3-2.2-1.5-2.2c-0.4-0.1-1,0.4-1.4,0.8c-0.6,0.6-0.8,1.4-0.6,2.3
			c0,0.2,0.2,0.4,0.4,0.4c0,0,0.1,0,0.1,0c0.1,0,0.2-0.1,0.2-0.1c0.1-0.1,0.1-0.2,0.1-0.4c-0.1-0.4,0-0.9,0.3-1.2
			c0.2-0.4,0.6-0.6,0.7-0.6c0.2,0.2,0.4,0.8,0.7,1.3c0,0.1,0.1,0.2,0.1,0.3c0.1,0.2,0.4,0.3,0.6,0.3C35.8,38.5,35.9,38.3,35.8,38z"
			/>
		<path fill="#58002A" d="M29.6,76.9c0.1-0.3-0.1-0.5-0.4-0.6c-0.3-0.1-0.5,0.1-0.6,0.4c0,0-0.2,1.2-0.5,3.1
			c-0.3,2.1-0.7,5.2-0.9,8.5c0.3,0.2,0.7,0.3,1,0.5c0.2-2.6,0.4-4.9,0.7-6.9C29.2,78.9,29.6,76.9,29.6,76.9z"/>
		<path fill="#58002A" d="M74.6,71.3c-3.1-2.9-6.5-5.3-9.4-7.1c0,0,0,0,0-0.1c0.2-1.9-0.8-7.3-2.1-8.8c-0.4-0.5-1.3-1.1-5-1.1
			c-1.3,0-2.6,0-3.2,0.1c0-0.8,0-1.7,0.1-2.4c2.1-1.3,4.4-3.5,5.3-7c0.2-0.8,0.4-1.7,0.6-2.5c0.4,0.1,0.9,0.2,1.4,0.2
			c0.7,0,1.4-0.2,2.2-0.6c2-1.2,3.4-4.1,3-6.4c-0.1-0.8-0.5-1.4-1-1.9c2.5-4.4,3.2-8.3,2.2-11.6c-0.9-2.9-3.1-5.2-6.5-6.9
			c-2.2-1.1-4-2.4-5.7-3.6c-2.9-2.1-5.7-4.1-9.6-4.5c-2.6-0.3-5.4,0.6-8.2,2.5c-1.7,1.2-2.9,2.5-3.3,2.9c-2.1,0.4-3.9,3.9-5.4,7
			c-0.5,0.9-0.9,1.8-1.3,2.5c-2.2,3.9,1.2,10.1,2.2,11.6c-0.5,0.5-0.9,1.1-1.1,2c-0.4,2.3,0.9,5.2,3,6.4c0.8,0.5,1.5,0.6,2.2,0.6
			c0.6,0,1.1-0.1,1.5-0.2c0.2,0.9,0.3,1.7,0.5,2.6c0.7,2.9,2.6,5.3,5.4,7c0,0.8,0.1,1.8,0.1,2.8c-1.1-0.1-3.4-0.2-5.7,0.1
			c-2.8,0.4-3.8,4.5-4.4,7c-0.1,0.2-0.1,0.5-0.2,0.7c-0.1,0.6-0.1,1.1,0.1,1.6c-2.9,1.8-6.4,4.3-9.6,7.2c-2,1.8-3,6.1-3.5,10.8
			c0.3,0.3,0.6,0.7,0.9,1c0.6-5.8,1.7-9.6,3.3-11c3.1-2.9,6.6-5.3,9.4-7.1c0.6,0.8,1.6,1.5,2.6,2.3c0.4,0.3,0.9,0.7,1.3,1
			c2.2,1.8,3.6,2.7,4.2,3.1c-0.1,0.1-0.2,0.2-0.2,0.2c-0.1,0-0.1,0.1-0.1,0.2c-0.3,0.5-0.2,1.2,0.1,1.8c0.5,1.1,1.8,2.2,3,2.5
			c0.5,0.1,0.8,0.9,1.2,1.6c0.4,0.8,0.9,1.8,1.8,1.9c1.1,3.5,1.2,7.1,1,10.1c-0.1,1.2-0.2,2.3-0.3,3.2c0,0.1,0,0.1,0,0.2
			c0.3,0,0.7,0,1,0c0,0,0-0.1,0-0.1c0.3-3.2,0.9-8.5-0.7-13.5c1-0.5,2.8-1.8,4.7-3.2c0.9-0.7,1.8-1.4,2.7-2.1
			c1.1,1.9,1.9,3.6,2.3,5.2c1.1,4.1,1.4,9.4,1.5,12.7c0.3-0.1,0.7-0.1,1-0.2c0-0.9-0.1-2-0.1-3.1c-0.2-3-0.6-6.6-1.4-9.6
			c-0.5-1.7-1.3-3.5-2.5-5.5c0.4-0.3,0.7-0.6,1-0.8c1.6-1.3,3.9-3.3,5.8-5c1.2-1.2,1.9-1.9,2.3-2.4c2.8,1.8,6.1,4.1,9.2,7
			c1.8,1.6,3,6.1,3.5,13c0.3-0.2,0.7-0.5,1-0.7C77.9,78.9,76.9,73.4,74.6,71.3z M43.7,75.1c-0.9-0.2-2-1.1-2.3-1.9
			c-0.2-0.3-0.2-0.6-0.1-0.9c1.2-1,13.5-11.3,18.2-15.5c0.2-0.2,0.2-0.5,0-0.7c-0.2-0.2-0.5-0.2-0.7,0c-0.2,0.2-0.5,0.4-0.7,0.6
			c-0.8,0.7-1.7,1.5-2.7,2.3c-0.3-0.3-0.4-0.6-0.5-0.9c0-0.3-0.1-0.8-0.1-1.4c0-0.4,0-0.9,0-1.3c0.7,0,1.9-0.1,3.2-0.1
			c3.4,0.1,4.1,0.6,4.3,0.8c0.1,0.1,0.1,0.2,0.2,0.3c0.9,1.6,1.8,6,1.6,7.6c0,0.1-0.2,0.6-2.6,2.9c-0.3,0.3-0.6,0.5-0.9,0.8
			c-1.3,1.2-3,2.6-4.8,4.1c-4.7,3.9-8.6,6.6-9.2,6.8c-0.4,0.1-0.7-0.5-1.2-1.4C45.2,76.3,44.7,75.3,43.7,75.1z M34.6,65.4
			c-1.1-0.9-1.7-1.7-1.5-2.7c0.1-0.2,0.1-0.4,0.2-0.7c0.3-1.5,0.8-3.6,1.8-4.9c0.5-0.7,1-1.2,1.7-1.3c2.2-0.3,4.6-0.2,5.6-0.1
			c0,0.4,0,0.7,0,1.1c0,0.5,0,1-0.1,1.3c0,0.2-0.1,0.4-0.3,0.6c-1-0.7-1.8-1.3-2.5-1.7c-0.7-0.4-1.1-0.7-1.2-0.8
			c-0.2-0.1-0.6-0.1-0.7,0.2c-0.1,0.2-0.1,0.6,0.2,0.7c0,0,1.1,0.7,2.7,1.8c2.2,1.6,5.3,3.9,7.5,6.3c-0.5,0.4-1,0.9-1.5,1.3
			c-2.1,1.8-3.9,3.3-5,4.2c-0.3-0.2-1.9-1.2-4.4-3.2c-0.4-0.4-0.9-0.7-1.3-1C35.4,66.1,35,65.7,34.6,65.4z M37.2,41.6
			C37.1,41.6,37.1,41.6,37.2,41.6c-0.1-0.3-0.4-0.4-0.6-0.3c-0.5,0.2-1.9,0.7-3.3-0.1c-1.9-1.2-2.9-3.8-2.5-5.5
			c0.1-0.6,0.4-1.2,1-1.6c0.2-0.1,0.4-0.2,0.5-0.2c0.1,0,0.2-0.1,0.3-0.1c1.3-0.3,2.1,0.1,2.8,0.6c0.2,1.1,0.8,4.6,2.4,7.3
			c0,0,0,0.1,0,0.1c0,0.1,0.1,2.6,1.4,5.3c0.4,0.9,1,1.8,1.8,2.7c-1.6-1.4-2.7-3.1-3.2-5.2C37.6,43.7,37.4,42.7,37.2,41.6
			C37.2,41.6,37.2,41.6,37.2,41.6z M29.5,22.4c0.4-0.7,0.9-1.6,1.3-2.6c1.4-2.8,3.2-6.4,4.9-6.5c0.1,0,0.2-0.1,0.3-0.2
			c0-0.1,5-5.9,10.8-5.2c3.7,0.4,6.2,2.3,9.2,4.4c1.8,1.3,3.6,2.6,5.8,3.7c3.2,1.6,5.3,3.7,6.1,6.3c0.4,1.3,0.5,2.8,0.3,4.4
			c-0.3,2-1.1,4.1-2.3,6.4c-1-0.6-2.1-0.5-2.7-0.4c-0.2-0.6-0.7-1.7-1.7-2.9c-0.5-0.5-1.1-1.1-1.8-1.6c-1.5-1-3.6-2-6.5-2.3
			c-5.6-0.6-10.6-5.6-10.7-5.7c-0.1-0.1-0.3-0.2-0.5-0.1c-0.2,0.1-0.3,0.2-0.3,0.4c0,1.7-1,3.6-2.2,5.3c-1.7,2.4-3.7,4.4-3.7,4.4
			c-0.1,0.1-0.1,0.2-0.1,0.3l-0.3,2.5c-0.8-0.4-2.1-0.7-3.7,0c-0.6-1-2.3-4-2.7-7C28.8,24.8,28.9,23.5,29.5,22.4z M60.7,41.3
			c-0.2-0.1-0.5,0-0.6,0.2c-0.1,0.1-0.1,0.2,0,0.4c-0.2,1-0.4,1.9-0.7,2.8c-0.6,2.1-1.7,3.7-2.9,4.9c0.7-0.8,1.2-1.6,1.6-2.4
			c1.2-2.5,1.4-4.7,1.4-5.2c1.4-2.4,2.1-5.9,2.5-7.6c0-0.1,0-0.1,0-0.1c0.5-0.4,1.2-0.7,2.7-0.5c1.3,0.2,1.7,1.2,1.8,2
			c0.3,1.7-0.6,4.4-2.5,5.5C62.6,42.1,61.3,41.6,60.7,41.3z M62.2,33C62.2,33.1,62.2,33.1,62.2,33C62.2,33,62.2,33,62.2,33
			C62.2,33,62.2,33,62.2,33z M33.7,33.6l-0.6,0C33.3,33.6,33.5,33.6,33.7,33.6z M36.2,34.4c0-0.1,0-0.2,0-0.4c0,0,0,0,0,0
			c0-0.1,0-0.2,0-0.3l0.3-2.9c0.8-0.8,5.2-5.3,5.9-9.3c1.6,1.4,5.8,4.8,10.6,5.3c3.3,0.3,5.9,1.5,7.7,3.6c0.3,0.4,0.6,0.7,0.8,1.1
			c-0.1,0.7-0.1,1.4-0.2,2.1c0,0,0,0,0,0c0,0.1-0.1,0.3-0.1,0.6c-0.3,1.4-0.9,4.6-2.1,6.9c-2.9-2.5-10-2.9-10.4-2.9c0,0,0,0,0,0
			c-0.1,0-1,0-2.2,0.2c-0.3,0-0.5,0.1-0.8,0.1c-2.3,0.3-5.5,1.1-7.3,2.5C37,38.6,36.4,35.7,36.2,34.4z M48.6,39
			c0.3,0,4.3,0.2,7.4,1.4c1.1,0.4,2,0.9,2.7,1.5c0,0.6-0.3,2.7-1.3,4.8c-1.7,3.4-4.5,5.4-8.4,5.9c-0.2,0-0.4,0-0.7,0
			c-2.6-0.3-4.7-1.4-6.4-3c-0.8-0.8-1.5-1.7-2-2.8c-1.1-2.1-1.3-4.2-1.4-4.8C41,39.5,48.2,39.1,48.6,39z M43.6,52.7
			c1.6,0.8,3.3,1.2,5.1,1.2c1.7,0,3.5-0.4,5.1-1.2c0.1,0,0.2-0.1,0.2-0.1c0,0.8,0,1.7-0.1,2.6c0,1.3,0,2.5,0.1,3.1
			c0.1,0.5,0.3,1,0.7,1.4c-1.8,1.6-3.8,3.3-5.8,4.9c-1.8-1.9-4-3.8-6-5.2c0.2-0.4,0.4-0.7,0.5-1.1c0.1-0.6,0.1-1.9,0.1-3.3
			c0-0.8,0-1.7-0.1-2.4C43.4,52.6,43.5,52.6,43.6,52.7z"/>
		<path fill="#FC4766" d="M41.6,70.7c1.1-0.9,2.9-2.4,5-4.2c-0.9-1.2-4-5.3-6-7.6c-1.6-1.1-2.7-1.8-2.7-1.8
			c-0.2-0.1-0.3-0.5-0.2-0.7c0.1-0.2,0.5-0.3,0.7-0.2c0.1,0,0.5,0.3,1.2,0.8l0.3-0.2l2.5,0c0-0.3,0-0.7,0-1.1
			c-1-0.1-3.4-0.2-5.6,0.1c-0.7,0.1-1.3,0.6-1.7,1.3c-0.2,0.6-0.4,1.5,0.2,2.4c0.9,1.4,1.2,2.4,0.2,2.7c-0.9,0.2-1.3,2-0.8,3.3
			c0.4,0.3,0.8,0.6,1.3,1c0.4,0.3,0.9,0.7,1.3,1C39.7,69.5,41.3,70.5,41.6,70.7z"/>
		<path fill="#D3355E" d="M35.4,62.2c1-0.3,0.7-1.2-0.2-2.7c-0.5-0.8-0.4-1.8-0.2-2.4c-0.9,1.3-1.4,3.5-1.8,4.9
			c-0.1,0.3-0.1,0.5-0.2,0.7c-0.2,1,0.3,1.8,1.5,2.7C34.1,64.2,34.5,62.4,35.4,62.2z"/>
		<path fill="#D3355E" d="M46.6,66.5c0.5-0.4,1-0.9,1.5-1.3c-2.2-2.4-5.3-4.7-7.5-6.3C42.5,61.2,45.6,65.3,46.6,66.5z"/>
		<path fill="#FC4766" d="M54.5,88c0.3-2.8-1.5-9-2.4-11.9c-1.9,1.4-3.7,2.7-4.7,3.2c1.6,5,1.1,10.3,0.7,13.5c0,0,0,0.1,0,0.1
			c1.5,0,2.9-0.1,4.4-0.2C53.7,91.4,54.4,89.7,54.5,88z"/>
		<path fill="#D3355E" d="M57.1,79.2c-0.4-1.5-1.2-3.3-2.3-5.2c-0.8,0.7-1.8,1.4-2.7,2.1C53,79,54.8,85.2,54.5,88
			c-0.2,1.7-0.8,3.4-2,4.8c2-0.2,4-0.5,6-0.8C58.5,88.6,58.2,83.3,57.1,79.2z"/>
		<path fill="#FC4766" d="M46.7,78.6c0.6-0.1,4.5-2.9,9.2-6.8c1.8-1.5,3.5-2.9,4.8-4.1c1.1-1.7,1.6-3.3,1.8-4.5
			c0.4-2-2.5-0.4-1.2-2.8c0.4-0.9,1-2.9,1.3-4c-0.1-0.1-0.1-0.2-0.2-0.3c-0.1-0.2-0.9-0.7-4.3-0.8c-1.3,0-2.6,0-3.2,0.1
			c0,0.5,0,0.9,0,1.3l3.2,0c0.3-0.2,0.5-0.4,0.7-0.6c0.2-0.2,0.5-0.2,0.7,0c0.2,0.2,0.2,0.5,0,0.7c-4.7,4.2-17,14.5-18.2,15.5
			c-0.1,0.2,0,0.5,0.1,0.9c0.4,0.8,1.4,1.7,2.3,1.9c0.9,0.2,1.4,1.2,1.9,2.1C46,78.1,46.3,78.6,46.7,78.6z"/>
		<path fill="#D3355E" d="M62.5,63.2c-0.2,1.2-0.7,2.8-1.8,4.5c0.3-0.3,0.6-0.6,0.9-0.8c2.4-2.3,2.6-2.8,2.6-2.9
			c0.2-1.6-0.7-6.1-1.6-7.6c-0.3,1.1-0.8,3.1-1.3,4C60,62.8,62.9,61.2,62.5,63.2z"/>
		<path fill="#964639" d="M66.1,23.5c0,1.4,2.4,3.2,0,2.3c-2.4-0.9-5.5-3.5-3.9-1.3s1.6,4.5-0.5,3.2c-1.8-1.1-3.5-1.5-2.2,0.6
			c0.8,0.5,1.4,1.1,1.8,1.6c1,1.2,1.5,2.3,1.7,2.9c0.6-0.1,1.7-0.2,2.7,0.4c1.3-2.3,2-4.4,2.3-6.4C67.1,24.7,66.1,22.8,66.1,23.5z"
			/>
		<path fill="#964639" d="M31.6,33.1c1.5-0.7,2.8-0.4,3.7,0l0.3-2.5c0-0.1,0.1-0.2,0.1-0.3c0,0,2-2,3.7-4.4c-0.1-0.1-0.4-0.1-1,0.1
			c-2,0.8-4.7,1.5-4.7,0s-0.4-1.9-1.8,0.2s-1.5-0.2-1.7-1.9c-0.1-0.7-0.6,0.3-1.2,1.7C29.3,29.1,31,32.1,31.6,33.1z"/>
		<path fill="#964639" d="M33.7,33.6c-0.2,0-0.4,0-0.6,0L33.7,33.6z"/>
	</g>
</g>
</svg>
