<?xml version="1.0" encoding="utf-8"?>
<!-- Generator: Adobe Illustrator 22.0.1, SVG Export Plug-In . SVG Version: 6.00 Build 0)  -->
<svg version="1.1" id="Layer_1" xmlns="http://www.w3.org/2000/svg" xmlns:xlink="http://www.w3.org/1999/xlink" x="0px" y="0px"
	 width="100px" height="100px" viewBox="0 0 100 100" enable-background="new 0 0 100 100" xml:space="preserve">
<g>
	<path fill="#10C4B7" d="M19.3,59.2c9.9-18.6-5.1-31.4,10.3-41.5c18-11.8,49.6-6.2,53.4,9.9c3.8,16.1-10.4,19.6-5.7,36.2
		C90.4,110.3-0.7,96.8,19.3,59.2z"/>
	<g>
		<path fill="#FCAF32" d="M37.3,57.3c0.2-0.1,0.4,0,0.6,0.1c0.2,0.2,0.4,0.5,0.6,0.8c1.8-1,3.4-2,4.1-2.8c-2.6,0.1-4.9,0.2-5.2,0.7
			C37.1,56.4,37.1,56.8,37.3,57.3z"/>
		<path fill="#FCAF32" d="M61.2,56c-0.3-0.4-2.6-0.6-5.1-0.7c0.7,0.9,2.2,1.8,4.1,2.8c0.2-0.3,0.4-0.5,0.6-0.8
			c0.1-0.1,0.3-0.2,0.5-0.2C61.3,56.8,61.4,56.4,61.2,56z"/>
		<path fill="#FCD5AC" d="M43.9,54.7c-0.2,1.5-2.1,2.8-4.9,4.3c0.5,0.9,1,2,1.4,3.2c1.2,0.9,4.3,3.1,8.9,3.1c5.4,0,8.5-3,9-3.4
			c0.4-1.1,0.8-2,1.3-2.8c-2.8-1.6-4.7-2.8-4.9-4.3c-0.1-0.6-0.1-1.8-0.1-3.1c-0.1,0-0.1,0.1-0.2,0.1c-3.1,1.5-6.7,1.5-9.8,0
			c-0.2-0.1-0.4-0.2-0.6-0.3C44,52.8,44,54.1,43.9,54.7z"/>
		<path fill="#F6A789" d="M54.4,51.7c0.1,0,0.1-0.1,0.2-0.1c0-0.9,0-1.8,0.1-2.6c-0.1,0-0.2,0.1-0.2,0.1c-1.6,0.8-3.4,1.2-5.1,1.2
			c-1.8,0-3.5-0.4-5.1-1.2c-0.1,0-0.2-0.1-0.2-0.1c0,0.8,0,1.6,0.1,2.4c0.2,0.1,0.4,0.2,0.6,0.3C47.6,53.3,51.3,53.3,54.4,51.7z"/>
		<path fill="#ED555B" d="M48.8,69.5c-5-1.2-6.9-3.3-7.7-4.8c0.5,2.1,0.8,4.6,0.9,7.4c0.2,4.9-0.2,9.1-0.2,9.4v10.9
			c3.3,0.7,6.7,1,10.1,1C53.6,84.8,55,71,48.8,69.5z"/>
		<path fill="#D3424D" d="M56.5,72.1c0.2-3.2,0.6-6.1,1.2-8.4c-1.6,1.1-4.4,2.6-8.4,2.6c-3.8,0-6.7-1.4-8.4-2.5
			c0.1,0.3,0.1,0.6,0.2,0.9c0.8,1.5,2.8,3.6,7.7,4.8C55,71,53.6,84.8,52,93.4c1.6,0,3.2-0.1,4.8-0.3V81.5
			C56.7,81,56.3,76.9,56.5,72.1z"/>
		<path fill="#50AEEB" d="M76.6,77.5L76.6,77.5c0-0.7-0.2-6-6-11.4c-0.1-0.1-0.2-0.2-0.3-0.3c-1.2,1.4-2.8,3-4.7,4.3
			c-4,2.7-6.8,5.5-7.6,10.1l-0.1,1.2c0,0,0,0,0,0.1c0,0,0,0,0,0v4.1c7.9-0.6,10.6-4.5,11.5-6.9c-0.4-3-0.8-5-0.8-5.1
			c-0.1-0.3,0.1-0.5,0.4-0.6c0.3-0.1,0.5,0.1,0.6,0.4c0,0,0.3,1.7,0.7,4.2c0.6,1.7,1.5,4.7,2.1,9.3c2-1.7,3.6-3.8,4.7-6.3L76.6,77.5
			C76.6,77.6,76.6,77.6,76.6,77.5z"/>
		<path fill="#FCD5AC" d="M41.6,46.3c-0.8-0.9-1.4-1.9-1.9-2.7c-1.3-2.7-1.5-5.3-1.5-5.4c0,0,0-0.1,0-0.1c-1.6-2.7-2.3-6.2-2.5-7.3
			c-0.8-0.6-1.7-0.8-2.8-0.6c-1.3,0.2-1.7,1.2-1.8,2c-0.3,1.7,0.6,4.4,2.6,5.6c1.4,0.9,2.8,0.4,3.3,0.1c0.2-0.1,0.5,0,0.6,0.2
			c0,0,0,0,0,0.1c0,0,0,0,0,0c0.2,1.1,0.4,2.1,0.6,3.1C38.9,43.1,40,44.9,41.6,46.3z M36,35.2c-0.2,0.1-0.5,0-0.6-0.3
			c0-0.1-0.1-0.2-0.1-0.3c-0.4,0-0.8,0.1-1.1,0.6c-0.2,0.3-0.5,0.4-0.7,0.3c-0.1,0.1-0.1,0.1-0.2,0.1c0,0-0.1,0-0.1,0
			c-0.2,0-0.4-0.1-0.4-0.4c-0.2-0.8,0-1.6,0.6-2.3c0.4-0.4,1-0.8,1.4-0.8c0.2,0,0.6,0.1,1.5,2.2C36.4,34.8,36.3,35.1,36,35.2z"/>
		<path fill="#FCD5AC" d="M38.9,37.3c1.8-1.5,5-2.2,7.3-2.5c1-1.9,0.9-4.9,0.9-4.9c0-0.2,0.1-0.4,0.3-0.4c0.2,0,0.4,0.1,0.4,0.3
			c0,0.1,0.1,2.8-0.8,4.9c1.2-0.1,2.1-0.2,2.2-0.2c0,0,0,0,0,0c0.3,0,7.5,0.4,10.5,2.9c1.2-2.3,1.9-5.2,2.1-6.5
			c-0.1,0.1-0.1,0.2-0.2,0.2c0-0.1-0.1-0.2-0.1-0.3c-1.4-4.9-5.6-5.9-10-7.1c-0.3-0.1-0.6-0.1-0.9-0.2c-3.5-0.9-5.8-3.4-6.9-4.8
			c-0.3,1.5-1.1,4.2-2.9,5.6c-1.8,1.3-3.3,5.1-3.9,6.8c0-0.1-0.1-0.1-0.1-0.2C37.1,32.3,37.7,35.1,38.9,37.3z M54.4,32.4
			c-0.7,0-1.2-0.8-1.2-1.7s0.5-1.7,1.2-1.7s1.2,0.8,1.2,1.7S55,32.4,54.4,32.4z M55.3,25.8c2.5,0.7,4.3,2.7,4.3,2.7
			s-2.9-0.8-4.3-1.2c-0.9-0.2-2.8-0.6-2.9-1.1C52.2,25.4,53.3,25.2,55.3,25.8z M44.2,32.4c-0.7,0-1.2-0.8-1.2-1.7s0.5-1.7,1.2-1.7
			s1.2,0.8,1.2,1.7S44.9,32.4,44.2,32.4z M43.3,25.8c2-0.6,3.2-0.4,3,0.4c-0.1,0.5-2.1,0.9-2.9,1.1c-1.4,0.4-4.3,1.2-4.3,1.2
			S40.8,26.5,43.3,25.8z"/>
		<path fill="#A44525" d="M33.5,25.7c0.9-0.7,0.7-1.8,1.4-0.8c0.6,1,2.7,1,3.8-0.3c1.1-1.4,4.4-6.7,3.4-9.3c-1-2.6,2.5,2.2,4.9,3.9
			c2.4,1.7,10.4,5,12.3,4.6s1.9-0.3,2.4,0.6c0.6,0.9,1.6,1.1,2.2,0.2c0.4-0.5,1.4-1.2,2.2-0.9c0-0.5,0.1-1,0-1.4
			c-0.1-2-2.8-5-4.8-7.2c-0.9-1-1.7-1.9-2.1-2.5c-2.2-3.2-6.5-5.8-11.2-4.6c-4.6,1.2-6.5,4.9-6.6,5c-0.1,0.1-0.1,0.2-0.2,0.2
			c-0.1,0-5.4,2.1-7.7,6c-1,1.8-1.2,4.3-1,6.6C32.9,25.8,33.3,25.9,33.5,25.7z"/>
		<path fill="#8E341B" d="M36.2,29.8c0.1,0,0.2,0,0.3,0.1c0.8-2,2.2-5,3.9-6.2c2.3-1.7,2.8-6,2.8-6.1c0-0.2,0.2-0.4,0.4-0.4
			c0.2,0,0.4,0,0.5,0.2c0,0,2.6,4.2,7,5.3c0.3,0.1,0.6,0.1,0.9,0.2c4.3,1.1,8.6,2.2,10.4,7c0.1,0,0.1,0,0.2,0c0,0,0,0,0,0
			c0.8-0.5,1.6-0.8,2.6-0.7c0.4-1.4,1-3.6,1.1-5.5c-0.8-0.2-1.8,0.4-2.2,0.9c-0.6,0.9-1.7,0.7-2.2-0.2c-0.6-0.9-0.4-1.1-2.4-0.6
			s-9.9-2.9-12.3-4.6c-2.4-1.7-5.9-6.5-4.9-3.9c1,2.6-2.3,8-3.4,9.3c-1.1,1.4-3.2,1.3-3.8,0.3c-0.6-1-0.5,0.1-1.4,0.8
			c-0.2,0.2-0.6,0.1-1-0.1c0.1,1.4,0.3,2.7,0.5,3.6C34.2,28.9,35.3,29.2,36.2,29.8z"/>
		<path fill="#FCD5AC" d="M65.6,30.1c-1.1-0.2-2,0-2.7,0.6c-0.1,1.3-0.9,5-2.5,7.6c0,0.5-0.2,2.8-1.5,5.3c-0.4,0.9-1,1.8-1.9,2.7
			c1.6-1.4,2.7-3.2,3.2-5.2c0.2-1,0.5-2,0.6-3.1c0,0,0,0,0,0c0,0,0,0,0-0.1c0.1-0.2,0.4-0.3,0.6-0.2c0.5,0.3,1.9,0.7,3.3-0.1
			c1.9-1.2,2.9-3.8,2.6-5.6C67.3,31.3,66.8,30.3,65.6,30.1z M65.9,35.4c0,0.2-0.2,0.4-0.4,0.4c0,0-0.1,0-0.1,0
			c-0.1,0-0.2-0.1-0.2-0.1c-0.2,0.1-0.5,0-0.7-0.3c-0.3-0.5-0.8-0.6-1.1-0.6c0,0.1-0.1,0.2-0.1,0.3c-0.1,0.2-0.4,0.3-0.6,0.3
			c-0.2-0.1-0.3-0.4-0.3-0.6c0.9-2.2,1.3-2.2,1.5-2.2c0.4-0.1,1,0.4,1.4,0.8C65.8,33.7,66.1,34.5,65.9,35.4z"/>
		<path fill="#F6A789" d="M65,35.2c0.1-0.4,0-0.9-0.3-1.3c-0.2-0.4-0.6-0.6-0.7-0.6c-0.2,0.2-0.5,0.8-0.7,1.4c0.4,0,0.8,0.1,1.1,0.6
			c0.2,0.3,0.5,0.4,0.7,0.3C65,35.4,65,35.3,65,35.2z"/>
		<path fill="#58002A" d="M63.8,32.3c-0.2,0-0.6,0.1-1.5,2.2c-0.1,0.2,0,0.5,0.3,0.6c0.2,0.1,0.5,0,0.6-0.3c0-0.1,0.1-0.2,0.1-0.3
			c0.3-0.6,0.5-1.1,0.7-1.4c0.2,0.1,0.5,0.3,0.7,0.6c0.3,0.4,0.4,0.8,0.3,1.3c0,0.1,0,0.3,0.1,0.4c0.1,0.1,0.1,0.1,0.2,0.1
			c0,0,0.1,0,0.1,0c0.2,0,0.4-0.1,0.4-0.4c0.2-0.8,0-1.6-0.6-2.3C64.9,32.7,64.3,32.3,63.8,32.3z"/>
		<path fill="#F6A789" d="M47.8,29.8c0-0.2-0.2-0.3-0.4-0.3c-0.2,0-0.3,0.2-0.3,0.4c0,0,0.1,3.1-0.9,4.9c0.3,0,0.6-0.1,0.8-0.1
			C47.9,32.7,47.8,30,47.8,29.8z"/>
		<path fill="#70193B" d="M46.3,26.2c0.2-0.8-1-1-3-0.4c-2.5,0.7-4.3,2.7-4.3,2.7s2.9-0.8,4.3-1.2C44.2,27.1,46.2,26.8,46.3,26.2z"
			/>
		<path fill="#70193B" d="M55.3,27.3c1.4,0.4,4.3,1.2,4.3,1.2s-1.8-2-4.3-2.7c-2-0.6-3.2-0.4-3,0.4C52.4,26.8,54.4,27.1,55.3,27.3z"
			/>
		<ellipse fill="#70193B" cx="44.2" cy="30.6" rx="1.2" ry="1.7"/>
		<ellipse fill="#70193B" cx="54.4" cy="30.6" rx="1.2" ry="1.7"/>
		<path fill="#FFFFFF" d="M42.6,46c1,0.4,2.1,0.7,3.3,0.9c0.3,0,0.5,0,0.8,0c7.7-1,9.6-7.4,10.1-10.1c-3.1-1.1-7.1-1.4-7.4-1.4
			c-0.4,0-7.7,0.4-10.1,2.9c0.1,0.6,0.3,2.7,1.4,4.9C41.1,44.3,41.8,45.2,42.6,46z"/>
		<path fill="#DEFCF1" d="M46.7,46.9c-0.3,0-0.5,0-0.8,0c-1.3-0.2-2.4-0.5-3.3-0.9c1.6,1.7,3.8,2.7,6.4,3c0.2,0,0.4,0,0.7,0
			c3.9-0.5,6.8-2.5,8.4-5.9c1.1-2.2,1.3-4.2,1.4-4.8c-0.6-0.7-1.6-1.2-2.7-1.6C56.3,39.5,54.4,45.9,46.7,46.9z"/>
		<path fill="#50AEEB" d="M28.9,73.4c0.1-0.3,0.3-0.5,0.6-0.4c0.3,0.1,0.5,0.3,0.4,0.6c0,0-0.3,1.7-0.7,4.3c0.6,2.1,2.9,7,11.6,7.6
			v-4.1l-0.2-1.3c-0.8-4.6-3.6-7.4-7.6-10c-1.9-1.3-3.6-2.8-4.8-4.3c-0.1,0.1-0.2,0.2-0.3,0.3c-5.8,5.3-6,10.7-6,11.3l0,0.1
			c0,0,0,0,0,0.1L21.5,82c1.4,1.5,3,2.9,4.7,4.1c0.6-4.3,1.4-7,2-8.6C28.6,75,28.9,73.5,28.9,73.4z"/>
		<path fill="#5381EA" d="M29.2,78c-0.3,2.5-0.7,5.9-0.9,9.5c3.7,2.2,8,3.8,12.5,4.8v-6.6C32.1,84.9,29.8,80.1,29.2,78z"/>
		<path fill="#5381EA" d="M57.8,85.6V93c4.6-0.7,8.9-2.1,12.3-4.4c-0.1-3.7-0.5-7.2-0.8-9.9C68.4,81.1,65.7,85,57.8,85.6z"/>
		<path fill="#5381EA" d="M26.2,86.1c0.4,0.2,0.7,0.5,1.1,0.7c0.2-3.6,0.6-6.9,0.9-9.3C27.7,79.1,26.9,81.8,26.2,86.1z"/>
		<path fill="#5381EA" d="M71.1,87.9c0.4-0.3,0.8-0.6,1.1-0.9c-0.6-4.6-1.5-7.6-2.1-9.3C70.5,80.3,70.9,84,71.1,87.9z"/>
		<path fill="#58002A" d="M21.5,82l0.5-4.4c0,0,0,0,0-0.1l0-0.1c0-0.6,0.3-6,6-11.3c0.1-0.1,0.2-0.2,0.3-0.3c1.2,1.4,2.8,3,4.8,4.3
			c4,2.7,6.8,5.4,7.6,10l0.2,1.3v4.1v6.6c0.3,0.1,0.7,0.1,1,0.2V81.5c0-0.3,0.4-4.5,0.2-9.4c-0.1-2.8-0.5-5.2-0.9-7.4
			c-0.1-0.3-0.1-0.6-0.2-0.9c1.7,1.1,4.6,2.5,8.4,2.5c4,0,6.9-1.5,8.4-2.6c-0.6,2.4-1,5.2-1.2,8.4c-0.2,4.8,0.2,8.9,0.2,9.4v11.7
			c0.3,0,0.7-0.1,1-0.1v-7.4v-4.1c0,0,0,0,0,0c0,0,0,0,0-0.1l0.1-1.2c0.8-4.6,3.6-7.4,7.6-10.1c1.9-1.3,3.6-2.8,4.7-4.3
			c0.1,0.1,0.2,0.2,0.3,0.3c5.8,5.3,6,10.7,6,11.3v0.1c0,0,0,0,0,0.1l0.3,3c0.3-0.7,0.6-1.4,0.8-2.2l-0.1-0.9l0-0.1c0,0,0,0,0,0
			c0-0.2,0-0.5-0.1-1c0,0,0,0,0,0c0-0.1,0-0.2-0.1-0.4c0-0.1,0-0.1,0-0.2c0-0.1,0-0.2-0.1-0.4c0-0.1,0-0.2-0.1-0.3
			c0-0.1-0.1-0.2-0.1-0.4c0-0.1-0.1-0.2-0.1-0.4c0-0.1-0.1-0.2-0.1-0.4c0-0.1-0.1-0.3-0.1-0.4c0-0.1-0.1-0.2-0.1-0.4
			c-0.1-0.2-0.1-0.3-0.2-0.5c-0.1-0.1-0.1-0.3-0.2-0.4c-0.1-0.2-0.2-0.3-0.2-0.5c-0.1-0.1-0.1-0.3-0.2-0.4c-0.1-0.2-0.2-0.4-0.3-0.6
			c-0.1-0.1-0.1-0.3-0.2-0.4c-0.1-0.2-0.2-0.4-0.4-0.6c-0.1-0.1-0.2-0.3-0.3-0.4c-0.1-0.2-0.3-0.4-0.4-0.6c-0.1-0.1-0.2-0.3-0.3-0.4
			c-0.2-0.2-0.3-0.4-0.5-0.7c-0.1-0.1-0.2-0.3-0.3-0.4c-0.2-0.2-0.4-0.5-0.7-0.8c-0.1-0.1-0.2-0.2-0.3-0.3c-0.3-0.4-0.7-0.7-1.1-1.1
			c-0.1-0.1-0.3-0.2-0.4-0.3c0.8-1.1,1.3-2,1.4-2.6c0-0.3,0-0.8-1-2.3c-0.6-0.9-1.5-2-2.5-3c-0.9-0.9-3.8-4.1-5.6-4.7
			c-2.1-0.8-6.1-0.7-7.6-0.6c0-1.2,0-2.4,0.1-3.4c2.8-1.8,4.7-4.2,5.4-7.1c0.2-0.8,0.4-1.7,0.5-2.6c0.4,0.1,0.9,0.2,1.5,0.2
			c0.7,0,1.4-0.2,2.2-0.6c2.1-1.3,3.4-4.2,3-6.5c-0.2-1.4-1.1-2.3-2.4-2.6c0.5-1.8,1.3-5,1.2-7.1c-0.1-2.3-2.9-5.3-5.1-7.8
			c-0.9-1-1.6-1.8-2-2.4c-1.3-1.9-3.1-3.4-5.1-4.3c-2.3-1-4.7-1.3-7.1-0.6c-4.5,1.2-6.6,4.5-7,5.3c-1,0.4-5.8,2.5-8,6.3
			c-1.9,3.2-1.2,8.4-0.7,10.9c-0.9,0.4-1.6,1.3-1.8,2.4c-0.4,2.3,0.9,5.2,3,6.5c0.8,0.5,1.5,0.6,2.2,0.6c0.6,0,1.1-0.1,1.5-0.2
			c0.2,0.9,0.4,1.8,0.5,2.6c0.7,2.9,2.6,5.4,5.4,7.1c0,1,0.1,2.3,0.1,3.4c-1.5-0.1-5.4-0.2-7.6,0.6c-1.8,0.7-4.7,3.8-5.6,4.7
			c-1,1.1-1.9,2.1-2.5,3c-1,1.4-1.1,1.9-1,2.3c0.1,0.6,0.6,1.5,1.4,2.6c-0.1,0.1-0.3,0.2-0.4,0.3c-0.4,0.4-0.7,0.7-1.1,1.1
			c-0.1,0.1-0.2,0.2-0.3,0.4c-0.2,0.2-0.4,0.5-0.6,0.7c-0.1,0.1-0.2,0.3-0.3,0.4c-0.2,0.2-0.3,0.4-0.5,0.6c-0.1,0.1-0.2,0.3-0.3,0.4
			c-0.1,0.2-0.3,0.4-0.4,0.6c-0.1,0.1-0.2,0.3-0.3,0.4c-0.1,0.2-0.2,0.4-0.3,0.6c-0.1,0.1-0.2,0.3-0.2,0.4c-0.1,0.2-0.2,0.4-0.3,0.5
			c-0.1,0.1-0.1,0.3-0.2,0.4c-0.1,0.2-0.1,0.3-0.2,0.5c-0.1,0.1-0.1,0.3-0.2,0.4c-0.1,0.1-0.1,0.3-0.2,0.4c-0.1,0.1-0.1,0.3-0.2,0.4
			c0,0.1-0.1,0.2-0.1,0.4c0,0.1-0.1,0.3-0.1,0.4c0,0.1,0,0.2-0.1,0.3c0,0.2-0.1,0.3-0.1,0.4c0,0.1,0,0.1,0,0.2
			c0,0.2-0.1,0.3-0.1,0.5c0,0,0,0,0,0C21,76.8,21,77.4,21,77.5l-0.4,3.4C20.9,81.3,21.2,81.7,21.5,82z M30.7,57.8
			c2.1-2.3,4.1-4,5.1-4.3c2-0.7,5.9-0.6,7.2-0.5c0,0.7,0,1.3-0.1,1.7c0,0.2-0.2,0.5-0.4,0.8c-0.7,0.9-2.2,1.8-4.1,2.8
			c-0.2-0.3-0.4-0.5-0.6-0.8c-0.1-0.2-0.4-0.2-0.6-0.1c0,0-0.1,0-0.1,0.1c-0.2,0.2-0.2,0.5-0.1,0.7c1.9,2.2,2.9,5.6,3.4,9.2
			c0.6,3.7,0.6,7.6,0.5,10.4c-1.4-3.8-4.3-6.3-7.4-8.3c-0.9-0.6-1.6-1.2-2.3-1.8c-2.4-2.1-3.8-4.3-4-5.2
			C27.4,61.9,28.4,60.2,30.7,57.8z M37.7,38C37.7,38,37.7,37.9,37.7,38c-0.1-0.3-0.4-0.4-0.6-0.3c-0.5,0.3-1.9,0.7-3.3-0.1
			c-1.9-1.2-2.9-3.8-2.6-5.6c0.1-0.8,0.6-1.7,1.8-2c1.1-0.2,2,0,2.8,0.6c0.2,1.1,0.8,4.6,2.5,7.3c0,0,0,0.1,0,0.1
			c0,0.1,0.1,2.6,1.5,5.4c0.4,0.9,1,1.8,1.9,2.7c-1.6-1.4-2.7-3.2-3.2-5.2C38.1,40.1,37.9,39.1,37.7,38C37.7,38,37.7,38,37.7,38z
			 M33.5,19c2.3-3.9,7.7-6,7.7-6c0.1,0,0.2-0.1,0.2-0.2c0,0,2-3.8,6.6-5c4.7-1.2,9,1.4,11.2,4.6c0.5,0.7,1.2,1.5,2.1,2.5
			c2,2.2,4.7,5.3,4.8,7.2c0,0.4,0,0.9,0,1.4c-0.2,1.9-0.8,4.1-1.1,5.5c-1-0.1-1.9,0.2-2.6,0.7c0,0,0,0,0,0c-0.1,0-0.1,0-0.2,0
			c-1.7-4.8-6.1-5.9-10.4-7c-0.3-0.1-0.6-0.1-0.9-0.2c-4.4-1.1-7-5.2-7-5.3c-0.1-0.2-0.3-0.3-0.5-0.2c-0.2,0-0.3,0.2-0.4,0.4
			c0,0-0.4,4.3-2.8,6.1c-1.7,1.3-3.1,4.2-3.9,6.2c-0.1-0.1-0.2-0.1-0.3-0.1c-0.9-0.6-2-0.9-3.2-0.6c-0.2-0.9-0.4-2.2-0.5-3.6
			C32.3,23.3,32.5,20.8,33.5,19z M64.8,37.6c-1.4,0.9-2.8,0.4-3.3,0.1c-0.2-0.1-0.5,0-0.6,0.2c0,0,0,0,0,0.1c0,0,0,0,0,0
			c-0.2,1.1-0.4,2.1-0.6,3.1c-0.5,2-1.6,3.8-3.2,5.2c0.8-0.9,1.4-1.9,1.9-2.7c1.2-2.4,1.4-4.7,1.5-5.3c1.6-2.6,2.4-6.4,2.5-7.6
			c0.8-0.6,1.7-0.8,2.7-0.6c1.3,0.2,1.7,1.2,1.8,2C67.7,33.8,66.7,36.4,64.8,37.6z M62.8,53.4c1,0.4,3,2.1,5.1,4.3
			c2.3,2.5,3.3,4.2,3.3,4.6c-0.1,0.7-1.2,2.5-3.1,4.4c-0.9,0.9-2,1.8-3.2,2.6c-3.1,2.1-6,4.5-7.4,8.3c-0.1-2.9-0.1-7.1,0.6-11
			c0.6-3.3,1.6-6.5,3.3-8.5c0.2-0.2,0.2-0.5-0.1-0.7c-0.1-0.1-0.2-0.1-0.2-0.1c-0.2,0-0.4,0-0.5,0.2c-0.2,0.2-0.4,0.5-0.6,0.8
			c-1.8-1-3.4-2-4.1-2.8c-0.2-0.3-0.3-0.5-0.4-0.8c0-0.4-0.1-1-0.1-1.7C57,52.8,60.9,52.7,62.8,53.4z M36.8,31
			c0,0.1,0.1,0.1,0.1,0.2c0.6-1.7,2.1-5.5,3.9-6.8c1.9-1.4,2.6-4.1,2.9-5.6c1.1,1.4,3.4,3.9,6.9,4.8c0.3,0.1,0.6,0.1,0.9,0.2
			c4.4,1.1,8.6,2.1,10,7.1c0,0.1,0.1,0.2,0.1,0.3c0.1-0.1,0.1-0.2,0.2-0.2c-0.2,1.3-0.9,4.2-2.1,6.5c-3-2.6-10.1-2.9-10.5-2.9
			c0,0,0,0,0,0c-0.1,0-1,0-2.2,0.2c-0.3,0-0.5,0.1-0.8,0.1c-2.4,0.3-5.5,1.1-7.3,2.5C37.7,35.1,37.1,32.3,36.8,31z M49.3,35.4
			c0.3,0,4.4,0.2,7.4,1.4c1.1,0.4,2.1,0.9,2.7,1.6c-0.1,0.6-0.3,2.7-1.4,4.8c-1.7,3.4-4.5,5.4-8.4,5.9c-0.2,0-0.4,0-0.7,0
			c-2.6-0.3-4.8-1.4-6.4-3c-0.8-0.8-1.5-1.7-2-2.8c-1.1-2.2-1.3-4.2-1.4-4.9C41.6,35.8,48.9,35.4,49.3,35.4z M43.9,49
			c0.1,0,0.2,0.1,0.2,0.1c1.6,0.8,3.4,1.2,5.1,1.2c1.8,0,3.5-0.4,5.1-1.2c0.1,0,0.2-0.1,0.2-0.1c0,0.8,0,1.7-0.1,2.6
			c0,1.3,0,2.5,0.1,3.1c0.2,1.5,2.1,2.8,4.9,4.3c-0.5,0.8-0.9,1.8-1.3,2.8c-0.4,0.4-3.6,3.4-9,3.4c-4.5,0-7.7-2.1-8.9-3.1
			C40,61,39.6,60,39,59.1c2.8-1.6,4.7-2.8,4.9-4.3c0.1-0.7,0.1-1.9,0.1-3.3C44,50.6,44,49.8,43.9,49z"/>
		<path fill="#FDDF31" d="M31.3,67.5c1.9,0.6,3.7,0.8,4.3-0.1c1.1-1.7,2.9,1,5-0.1c-0.5-3.5-1.6-6.9-3.4-9.2
			c-0.2-0.2-0.2-0.5,0.1-0.7c0,0,0.1-0.1,0.1-0.1c-0.2-0.5-0.3-0.9,0-1.2c0.3-0.4,2.7-0.6,5.2-0.7c0.2-0.3,0.3-0.5,0.4-0.8
			c0-0.4,0.1-1,0.1-1.7c-1.4-0.1-5.3-0.2-7.2,0.5c-1,0.4-3,2.1-5.1,4.3c-2.3,2.5-3.3,4.2-3.3,4.6C27.5,63.1,28.9,65.4,31.3,67.5z"/>
		<path fill="#FCAF32" d="M35.6,67.4c-0.6,0.9-2.4,0.7-4.3,0.1c0.7,0.6,1.5,1.2,2.3,1.8c3.1,2.1,6,4.5,7.4,8.3
			c0.1-2.7,0.1-6.6-0.5-10.4C38.5,68.4,36.7,65.6,35.6,67.4z"/>
		<path fill="#FDDF31" d="M55.6,52.9c0,0.7,0,1.3,0.1,1.7c0,0.2,0.2,0.5,0.4,0.8c2.5,0.1,4.8,0.2,5.1,0.7c0.2,0.3,0.2,0.8,0,1.2
			c0.1,0,0.2,0,0.2,0.1c0.2,0.2,0.2,0.5,0.1,0.7c-1.7,2.1-2.8,5.2-3.3,8.5c2.1,1.2,3.9-1.6,5,0.1c0.7,1,2.9,0.6,5-0.1
			c1.9-1.9,3-3.6,3.1-4.4c0-0.4-1.1-2.1-3.3-4.6c-2.1-2.3-4.1-4-5.1-4.3C60.9,52.7,57,52.8,55.6,52.9z"/>
		<path fill="#FCAF32" d="M63.2,66.8c-1.1-1.7-2.9,1-5-0.1c-0.7,3.9-0.7,8.1-0.6,11c1.4-3.8,4.3-6.3,7.4-8.3
			c1.2-0.8,2.3-1.7,3.2-2.6C66,67.4,63.8,67.8,63.2,66.8z"/>
		<path fill="#F6A789" d="M33.9,33.9c-0.3,0.4-0.4,0.8-0.3,1.3c0,0.1,0,0.3-0.1,0.4c0.2,0.1,0.5,0,0.7-0.3c0.3-0.5,0.8-0.6,1.1-0.6
			c-0.3-0.6-0.5-1.1-0.7-1.4C34.5,33.3,34.1,33.5,33.9,33.9z"/>
		<path fill="#58002A" d="M36.3,34.6c-0.9-2.2-1.3-2.2-1.5-2.2c-0.4-0.1-1,0.4-1.4,0.8c-0.6,0.6-0.8,1.5-0.6,2.3
			c0,0.2,0.2,0.4,0.4,0.4c0,0,0.1,0,0.1,0c0.1,0,0.2-0.1,0.2-0.1c0.1-0.1,0.1-0.2,0.1-0.4c-0.1-0.4,0-0.9,0.3-1.3
			c0.2-0.4,0.6-0.6,0.7-0.6c0.2,0.2,0.4,0.8,0.7,1.4c0,0.1,0.1,0.2,0.1,0.3c0.1,0.2,0.4,0.3,0.6,0.3C36.3,35.1,36.4,34.8,36.3,34.6z
			"/>
		<path fill="#58002A" d="M29.9,73.6c0.1-0.3-0.1-0.5-0.4-0.6c-0.3-0.1-0.5,0.1-0.6,0.4c0,0-0.3,1.6-0.7,4.1
			c-0.3,2.4-0.7,5.7-0.9,9.3c0.3,0.2,0.7,0.4,1,0.6c0.2-3.6,0.5-7,0.9-9.5C29.6,75.3,29.9,73.7,29.9,73.6z"/>
		<path fill="#58002A" d="M69.5,73.4c-0.1-0.3-0.3-0.5-0.6-0.4c-0.3,0.1-0.5,0.3-0.4,0.6c0,0,0.4,2.1,0.8,5.1
			c0.4,2.7,0.7,6.2,0.8,9.9c0.3-0.2,0.7-0.5,1-0.7c-0.1-3.9-0.6-7.6-0.9-10.2C69.8,75.1,69.5,73.5,69.5,73.4z"/>
	</g>
</g>
</svg>
