<?xml version="1.0" encoding="utf-8"?>
<!-- Generator: Adobe Illustrator 22.0.1, SVG Export Plug-In . SVG Version: 6.00 Build 0)  -->
<svg version="1.1" id="Layer_1" xmlns="http://www.w3.org/2000/svg" xmlns:xlink="http://www.w3.org/1999/xlink" x="0px" y="0px"
	 width="100px" height="100px" viewBox="0 0 100 100" enable-background="new 0 0 100 100" xml:space="preserve">
<g>
	<path fill="#BFC3D4" d="M80,43.1c-8.4,19.3,7.6,30.9-7,42.2c-17,13.2-49,10.1-54-5.7s8.8-20.4,2.8-36.5C5.1-2.3,96.9,4.1,80,43.1z"
		/>
	<g>
		<path fill="#C70003" d="M38,13.5C38,13.5,38,13.5,38,13.5C38,13.5,38,13.5,38,13.5c0.6,0.1,0.9,0.5,0.9,1.2c-0.2,3-1.4,4.3,1.3,4
			c2.7-0.3,4.6-0.1,3,2.2c-1.5,2.2,2.2,3.9,3.8,3.7c5-2.9,7.9-7.2,7.9-7.3c0.1-0.2,0.3-0.3,0.5-0.2c0.2,0.1,0.3,0.3,0.3,0.5
			c-0.5,3.6,3.4,8,6.1,11c1.7,1.9,2.9,4.4,3.4,7c0.6,3.2-0.1,6.3-1.9,9c-0.3,0.4-0.5,0.9-0.6,1.3c0.9-0.2,2-0.2,3,0.6
			c1.2,1,2.4,0.1,3.6-0.9l1.5,4.6c-1.5-0.6-2.4-0.1-2.9,0.7c-0.5,0.7-1.2,1.1-1.9,1.4c0.4,0.3,0.7,0.7,1.1,1
			c0.8,0.7,1.2,1.5,1.2,2.4c0,1.7-1.3,3.4-2.3,4.5c0,0.1,0.1,0.2,0.1,0.3c1.2,0.8,3.6,2.5,6,4.6c2.2-1.1,3.6-2.6,4.3-4.5
			c0.8-2.3,0.3-4.8-0.5-6.3c-0.4-0.7-0.9-1.3-1.4-2c-0.3-0.4-0.7-0.8-1-1.3c-0.7,0-1.4-0.1-1.9-0.3c-0.3-0.1-0.5-0.3-0.8-0.3
			l-1.5-4.6c1.1-0.9,2.3-1.8,3.5-1.6c0.2,0,0.4,0.1,0.6,0.1c1.5-3.1,0.5-5.3-1.9-8.2c-1.8-2.2-1.8-3.2-1.7-5.6c0-1.2,0-2.6-0.2-4.7
			c-0.4-4.7-1.9-8.1-4.5-10.2c-3.3-2.7-7.3-2.3-7.3-2.3c-0.2,0-0.4-0.1-0.5-0.3c0,0-0.8-1.6-2.4-3c-2.2-1.9-4.9-2.6-8.1-2.1
			c-3.4,0.5-7.1,2.9-10.2,5.9C37.1,13.4,37.6,13.4,38,13.5z"/>
		<path fill="#C70003" d="M27.8,44.1c0.1,0.6,0.2,1.1,0.5,1.6l0,0c0.8,1.3,2.3,1.5,4,1.3c0.2-0.3,0.4-0.6,0.7-0.8
			c1.1-1.2,0.9-2.4,0.5-4.7c-0.2-1.3-0.5-2.9-0.6-5c-0.3-5.4,3.4-7.3,9-9.5c-0.1-0.9,0.5-3.3-0.7-2.8c-1.7,0.6-2.5-0.2-2.2-1.5
			c0.2-1.4-0.3-2.7-2.3-2.2c-1.9,0.5-2.7-0.8-1.9-1.8c0.3-0.4,0-0.5-0.4-0.6c0,0,0,0,0,0c-0.4,0-1,0-1.4,0.1
			c-1.8,2.6-2.9,5.2-3.1,7.4c-0.2,2.1-0.2,3.5-0.2,4.7c0,2.4,0,3.5-1.8,5.7c-1.9,2.3-2.9,4.2-2.5,6.4C26.5,42.2,27.6,42.6,27.8,44.1
			z"/>
		<path fill="#C70003" d="M22.8,60.4c0.6,1.8,2,3.3,4.1,4.4c2.4-2,4.7-3.7,5.9-4.5c0.4-1.3,0.9-2.6,1.5-4.1c-0.4-0.8-1-1.6-1.8-2.2
			c-0.9-0.6-1.5-1.5-1.6-2.6c0-0.1,0-0.1,0-0.2c-1.1-0.1-2,0.1-2.4,1v0l0,0c-0.6,1.3-2.3,1-3.9,0.2c-0.4,0.5-0.8,1.1-1.1,1.6
			C22.6,55.6,22,58.1,22.8,60.4z"/>
		<path fill="#E54848" d="M34.2,17.9C34.2,17.9,34.2,17.9,34.2,17.9c0.4,0,0.7,0.2,0.4,0.6c-0.7,1,0,2.3,1.9,1.8
			c1.9-0.5,2.5,0.8,2.3,2.2c-0.2,1.4,0.5,2.2,2.2,1.5c1.3-0.5,0.7,1.9,0.7,2.8c0.5-0.2,0.9-0.4,1.4-0.6c0.3-0.1,0.6-0.2,0.9-0.4
			c1-0.4,1.9-0.8,2.7-1.3c-1.6,0.3-5.3-1.4-3.8-3.7c1.5-2.3-0.4-2.6-3-2.2c-2.7,0.3-1.4-1-1.3-4c0-0.7-0.3-1-0.8-1.2c0,0,0,0,0,0
			c0,0,0,0,0,0c-0.4-0.1-0.9-0.1-1.4,0c-1.4,1.4-2.7,3-3.8,4.5C33.2,17.9,33.8,17.9,34.2,17.9z M34.3,17.8c0.3-0.4,0.6-0.7,0.8-1.1
			C34.9,17.1,34.6,17.4,34.3,17.8z M36.2,15.5c0.3-0.4,0.6-0.7,0.9-1C36.8,14.8,36.5,15.1,36.2,15.5z M35.2,16.7
			c0.3-0.4,0.6-0.7,0.9-1.1C35.8,16,35.5,16.4,35.2,16.7z"/>
		<path fill="#E54848" d="M69.3,45.5l1.5,4.6c0.2,0.1,0.5,0.2,0.8,0.3c0.5,0.3,1.2,0.3,1.9,0.3c-1.1-1.6-1.8-3.5-0.2-6.6
			c0-0.1,0.1-0.1,0.1-0.2c-0.2,0-0.4-0.1-0.6-0.1C71.5,43.7,70.4,44.6,69.3,45.5z"/>
		<path fill="#E54848" d="M28.4,52.2L28.4,52.2L28.4,52.2c0.4-0.9,1.3-1.1,2.4-1c-0.1-1.5,0.6-3.1,1.4-4.3c-1.7,0.2-3.2,0-4-1.3l0,0
			c-0.2-0.4-0.4-0.9-0.5-1.6c-0.1-1.5-1.3-1.9-2.5-2c0.1,0.7,0.3,1.3,0.7,2.1c2,3.9,0.3,6-1.2,7.9c-0.1,0.1-0.2,0.2-0.3,0.3
			C26.1,53.2,27.8,53.5,28.4,52.2z"/>
		<path fill="#740000" d="M63.3,38.9c-0.6,0-1.1-0.1-1.4-0.2c-0.2,0.9-0.3,1.8-0.5,2.6c-0.7,2.9-2.6,5.4-5.5,7.2
			c0,0.7,0,1.5-0.1,2.3c0.7,0.2,2.1,0.7,3.7,1.3c2.9,1.2,4.5,2.3,4.8,3.3l0.1,0.4c0.5,1.2,0.9,2.4,1.3,3.5c0.9-1,1.7-2.3,1.7-3.5
			c0-0.7-0.3-1.2-0.9-1.7c-2-1.7-3.4-3.2-4.1-4.6c-1-1.9-1-3.7,0.1-5.3c1.1-1.7,1.7-3.5,1.9-5.2C64,38.8,63.7,38.9,63.3,38.9z"/>
		<path fill="#740000" d="M33.6,46.7c-1.3,1.4-2,3.2-1.9,4.6c0.1,0.8,0.5,1.5,1.2,2c0.8,0.5,1.3,1.1,1.8,1.8c0.5-1,2-2,4.8-3.1
			c1.5-0.6,3-1.1,3.7-1.3c0-0.9,0-1.7-0.1-2.4c-2.8-1.7-4.6-4.2-5.3-7.1c-0.2-0.8-0.4-1.7-0.6-2.6c-0.4,0.1-0.9,0.3-1.5,0.3
			c-0.6,0-1.2-0.1-1.8-0.4c0.1,1,0.3,2,0.4,2.8C34.7,43.6,35,45.2,33.6,46.7z"/>
		<path fill="#FCD5AC" d="M52.5,73.6c2-1.4,4.3-7.2,5.2-9.6c-0.4-3-1-5.8-1.9-7.6c-0.5-0.5-0.9-1.1-1-1.6c0,0,0,0,0,0
			c0,0,0-0.1,0-0.1c-0.1-0.6-0.1-1.8-0.1-3.1c-0.1,0-0.1,0.1-0.2,0.1c-3.1,1.5-6.7,1.5-9.8,0c-0.2-0.1-0.4-0.2-0.6-0.3
			c0,1.4,0,2.6-0.1,3.3c0,0,0,0,0,0.1c0,0,0,0,0,0.1c-0.1,0.6-0.5,1.1-1,1.6c-0.8,1.7-1.4,4.2-1.8,7C42,65.9,45,78.8,52.5,73.6z"/>
		<path fill="#F6A789" d="M57.8,65.1c0-0.4-0.1-0.7-0.1-1.1c-0.9,2.4-3.2,8.2-5.2,9.6C45,78.8,42,65.9,41.3,63.4
			c-0.1,0.9-0.2,1.7-0.3,2.6c0.4,1,3.7,10.2,8.4,10.2c0,0,0,0,0,0C54.6,76.2,57.6,66.1,57.8,65.1z"/>
		<path fill="#50AEEB" d="M49.4,90.6c3.6-0.1,6.6-0.5,9.2-1.1c-0.2-3.2-0.3-6.8-0.3-7.1c0,0,0,0,0,0c0-0.1,0.3-7.5-0.2-14.7
			c-1.3,3.5-4.2,9.6-8.7,9.6c0,0,0,0,0,0c-4.2,0-7.2-5.7-8.6-8.9c-0.5,7-0.1,13.9-0.1,14c0,0,0,0,0,0c0,0,0,0,0,0
			c0,0.4-0.2,4.2-0.3,7.5C42.8,90.4,45.8,90.6,49.4,90.6z"/>
		<path fill="#5381EA" d="M49.4,90.6c-3.6,0.1-6.6-0.2-9.1-0.7c-0.1,1.2-0.1,2.4-0.2,3.3c6,0.8,12.4,0.5,18.6-1.1
			c0-0.8-0.1-1.6-0.1-2.5C56,90.1,53,90.5,49.4,90.6z"/>
		<path fill="#F6A789" d="M54.5,51.6c0.1,0,0.1-0.1,0.2-0.1c0-0.9,0-1.8,0.1-2.6c-0.1,0-0.1,0.1-0.2,0.1c-1.6,0.8-3.4,1.2-5.1,1.2
			c-1.8,0-3.5-0.4-5.1-1.2c-0.1-0.1-0.2-0.1-0.3-0.2c0,0.8,0,1.6,0.1,2.5c0.2,0.1,0.4,0.2,0.6,0.3C47.8,53.2,51.4,53.2,54.5,51.6z"
			/>
		<path fill="#FCD5AC" d="M36.9,30.2c0,0.2,0,0.4,0.1,0.6c0,0,0-0.1-0.1-0.1c0.2,1.3,0.9,4.1,2.1,6.4c1.8-1.5,5-2.2,7.3-2.5
			c1-1.9,0.9-4.9,0.9-4.9c0-0.2,0.1-0.4,0.3-0.4c0.2,0,0.4,0.1,0.4,0.3c0,0.1,0.1,2.8-0.8,4.9c1.2-0.1,2.1-0.2,2.2-0.2c0,0,0,0,0,0
			c0.3,0,7.5,0.4,10.5,2.9c1.4-2.6,2.1-6,2.1-6.9c0,0,0-0.1,0-0.1c-0.3-0.4-0.6-0.8-0.9-1.2c-2.6-2.8-6-6.6-6.3-10.2
			c-1.4,1.8-4.7,5.4-9.5,7.5c0.6,0.1,1.1,0.1,1.3,0.2c1.2,0.4,0.1,0.8-0.3,0.8c-0.3,0-1.6-0.2-2.8-0.3c-2.7,1-4.9,1.9-6.6,3
			C37,30.1,37,30.2,36.9,30.2z M54.5,32.2c-0.7,0-1.2-0.8-1.2-1.7s0.5-1.7,1.2-1.7s1.2,0.8,1.2,1.7S55.2,32.2,54.5,32.2z M52.5,26.6
			c0.6-0.2,4.6-0.6,5.4-0.1s1.7,1.9,1.7,2.1s-1.4-1.3-2.3-1.5c-0.9-0.2-4.1,0.4-4.5,0.4C52.4,27.4,51.3,27,52.5,26.6z M44.4,28.8
			c0.7,0,1.2,0.8,1.2,1.7s-0.5,1.7-1.2,1.7s-1.2-0.8-1.2-1.7S43.7,28.8,44.4,28.8z"/>
		<path fill="#C70003" d="M34.3,17.8c0.3-0.4,0.6-0.7,0.8-1.1C34.9,17.1,34.6,17.4,34.3,17.8z"/>
		<path fill="#C70003" d="M36.1,15.6c-0.3,0.4-0.6,0.7-0.9,1.1C35.5,16.4,35.8,16,36.1,15.6z"/>
		<path fill="#C70003" d="M37.1,14.4c-0.3,0.3-0.6,0.7-0.9,1C36.5,15.1,36.8,14.8,37.1,14.4z"/>
		<path fill="#C70003" d="M36.8,30.2c0,0.1,0,0.1,0,0.3c0-0.1,0-0.1,0.1-0.2c0-0.1,0-0.1,0.1-0.1C36.9,30.1,36.9,30.2,36.8,30.2z"/>
		<path fill="#FCD5AC" d="M35.3,37.9c-0.6-0.1-1-0.6-1-1.2c0-0.7,0.6-1.2,1.2-1.2c0.7,0,1.2,0.6,1.2,1.2c0,0.6-0.5,1.1-1.1,1.2
			c0.7,0,1.2-0.2,1.5-0.4c0.2-0.1,0.5,0,0.6,0.2c0,0,0,0,0,0.1c0,0,0,0,0,0c0.2,1.1,0.4,2.2,0.7,3.1c0.5,1.9,1.4,3.5,2.8,4.8
			c-0.7-0.8-1.2-1.6-1.5-2.4c-1.3-2.7-1.5-5.3-1.5-5.4c0,0,0-0.1,0-0.1c-1.5-2.5-2.2-5.8-2.4-7.1c-0.5,0.4-1,0.9-1.3,1.4
			c0.1,0,0.2,0,0.3,0c0.2,0,0.6,0.1,1.5,2.2c0.1,0.2,0,0.5-0.3,0.6c-0.2,0.1-0.5,0-0.6-0.3c0-0.1-0.1-0.2-0.1-0.3
			c-0.4,0-0.8,0.1-1.1,0.6c-0.2,0.3-0.4,0.4-0.6,0.3c0,0.3,0,0.5,0,0.8c0,0.4,0,0.7,0.1,1.1c0.1,0,0.1,0.1,0.2,0.1
			C34.4,37.8,34.9,37.9,35.3,37.9z"/>
		<path fill="#FCD5AC" d="M62.8,31.5c-0.3,1.7-1.1,4.5-2.3,6.7c0,0.5-0.2,2.8-1.5,5.3c-0.5,1-1.2,2-2.1,3c1.8-1.5,3-3.3,3.5-5.5
			c0.2-0.9,0.4-1.9,0.6-2.9c0-0.1,0-0.1,0-0.2c0.1-0.2,0.4-0.3,0.6-0.2c0.1,0.1,0.3,0.1,0.6,0.2c-0.4-0.2-0.6-0.6-0.6-1.1
			c0-0.7,0.6-1.2,1.2-1.2c0.7,0,1.2,0.6,1.2,1.2c0,0.6-0.5,1.1-1.1,1.2c0.4,0,0.9,0,1.4-0.2c0-1.1-0.1-2.1-0.4-3.1
			c-0.2-0.1-0.4-0.1-0.6-0.1c0,0.1-0.1,0.2-0.1,0.3C63.2,35,63,35.1,62.7,35c-0.2-0.1-0.3-0.4-0.3-0.6c0.4-1,0.7-1.5,0.9-1.8
			C63.2,32.3,63,31.9,62.8,31.5z"/>
		<path fill="#F6A789" d="M64.1,34.6c-0.1-0.3-0.2-0.6-0.3-0.9c-0.1,0.2-0.2,0.5-0.4,0.8C63.6,34.5,63.9,34.5,64.1,34.6z"/>
		<path fill="#F6A789" d="M48,29.7c0-0.2-0.2-0.3-0.4-0.3c-0.2,0-0.3,0.2-0.3,0.4c0,0,0.1,3.1-0.9,4.9c0.3,0,0.6-0.1,0.8-0.1
			C48.1,32.5,48,29.8,48,29.7z"/>
		<ellipse fill="#70193B" cx="44.4" cy="30.5" rx="1.2" ry="1.7"/>
		<ellipse fill="#70193B" cx="54.5" cy="30.5" rx="1.2" ry="1.7"/>
		<path fill="#90E9CD" d="M46,46.8c0.3,0,0.5,0,0.8,0c7.7-1,9.6-7.4,10.1-10.1c-3.1-1.1-7.1-1.4-7.4-1.4c-0.4,0-7.7,0.4-10.1,2.9
			c0.1,0.6,0.3,2.7,1.4,4.9c0.5,1.1,1.2,2,2,2.8C43.7,46.3,44.8,46.6,46,46.8z"/>
		<path fill="#7DD8BA" d="M58.2,43c1.1-2.2,1.3-4.2,1.4-4.8c-0.6-0.7-1.6-1.2-2.7-1.6c-0.5,2.7-2.3,9.1-10.1,10.1
			c-0.3,0-0.5,0-0.8,0c-1.3-0.2-2.4-0.5-3.3-0.9c1.6,1.7,3.8,2.7,6.4,3c0.2,0,0.4,0,0.7,0C53.7,48.4,56.5,46.4,58.2,43z"/>
		<path fill="#F6A789" d="M34.3,35.1c0.3-0.5,0.8-0.6,1.1-0.6c-0.3-0.6-0.5-1.1-0.7-1.4c-0.2,0.1-0.5,0.3-0.7,0.6
			c0,0.1-0.1,0.1-0.1,0.2c-0.1,0.3-0.1,0.6-0.2,0.9c0,0.1,0,0.1,0,0.2c0,0.1,0,0.3-0.1,0.4c0,0,0,0,0,0
			C33.9,35.5,34.2,35.4,34.3,35.1z"/>
		<path fill="#58002A" d="M22,60.7c0.7,1.9,2.1,3.5,4.2,4.7c-2.7,2.4-5.3,5.2-6.1,7.9c-0.4,1.4-0.9,3.2-1.3,5.3
			c0.1,0.3,0.2,0.7,0.3,1c0.1,0.3,0.2,0.6,0.4,0.9c0.5-2.7,1.1-5.2,1.7-6.9c1.4-4.2,7.9-9.3,11.2-11.6c-2.8,8.1-3.7,12-3.9,13.8
			c-0.1,0.7,0.7,1.1,1,1.2c0.5,0.2,1.2,0.5,2,0.7c2.5,0.8,6.3,2.1,8.3,4.8c0,0.8-0.2,3.8-0.3,7.1c-0.1,1.1-0.1,2.3-0.2,3.3
			c0.3,0.1,0.7,0.1,1,0.1c0-0.9,0.1-2,0.2-3.3c0.2-3.3,0.3-7.1,0.3-7.5c0,0,0,0,0,0c0,0,0,0,0,0c0-0.1-0.3-7,0.1-14
			c1.4,3.2,4.4,8.9,8.6,8.9c0,0,0,0,0,0c4.5,0,7.4-6.1,8.7-9.6c0.5,7.2,0.2,14.5,0.2,14.7c0,0,0,0,0,0c0,0.4,0.2,3.9,0.3,7.1
			c0,0.9,0.1,1.7,0.1,2.5c0.3-0.1,0.7-0.2,1-0.3c0-0.8-0.1-1.7-0.1-2.5c-0.2-3.1-0.3-5.9-0.3-6.7c2-2.7,5.8-4,8.3-4.8
			c0.8-0.3,1.5-0.5,2-0.7c0.3-0.1,1.1-0.5,1-1.2c-0.2-1.9-1.1-5.8-3.9-13.8c3.3,2.3,9.8,7.4,11.2,11.6c0.3,1,0.7,2.4,1,3.9
			c0.2-0.8,0.4-1.6,0.5-2.4c-0.2-0.7-0.3-1.3-0.5-1.8c-0.8-2.6-3.4-5.4-6-7.7c2.2-1.2,3.7-2.8,4.4-4.8c0.9-2.6,0.3-5.4-0.6-7.1
			c-0.4-0.8-1-1.5-1.5-2.1c-1.5-1.8-2.9-3.5-1.1-6.9c1.9-3.6,0.7-6.2-1.9-9.4c-1.6-1.9-1.6-2.7-1.5-5.1c0-1.1,0-2.7-0.2-4.8
			c-0.4-4.9-2-8.6-4.8-10.8C62.6,11.9,59,11.9,58,12c-0.3-0.6-1.1-1.8-2.5-3c-1.7-1.4-4.6-3-8.8-2.3c-3.7,0.6-8,3.2-11.8,7.3
			c-3.5,3.8-5.9,8.2-6.1,11.4c-0.2,2.1-0.2,3.7-0.2,4.8c0,2.3,0,3.1-1.6,5.1c-2.6,3.2-3.7,5.8-1.9,9.4c1.8,3.4,0.4,5.1-1.1,6.9
			c-0.5,0.7-1.1,1.4-1.5,2.1C21.7,55.3,21.1,58.1,22,60.7z M24.5,52.4c0.1-0.1,0.2-0.2,0.3-0.3c1.5-1.8,3.2-3.9,1.2-7.9
			c-0.4-0.7-0.6-1.4-0.7-2.1c-0.4-2.2,0.6-4.1,2.5-6.4c1.8-2.2,1.8-3.2,1.8-5.7c0-1.2,0-2.6,0.2-4.7c0.2-2.2,1.3-4.8,3.1-7.4
			c1.1-1.6,2.4-3.1,3.8-4.5c3.1-3,6.8-5.4,10.2-5.9c3.1-0.5,5.8,0.2,8.1,2.1c1.7,1.4,2.4,3,2.4,3c0.1,0.2,0.3,0.3,0.5,0.3
			c0,0,4-0.4,7.3,2.3c2.6,2.1,4.1,5.5,4.5,10.2c0.2,2.1,0.2,3.6,0.2,4.7c0,2.4,0,3.4,1.7,5.6c2.4,3,3.4,5.2,1.9,8.2
			c0,0.1-0.1,0.1-0.1,0.2c-1.6,3.1-0.9,5,0.2,6.6c0.3,0.4,0.7,0.9,1,1.3c0.5,0.7,1.1,1.3,1.4,2c0.8,1.5,1.3,4,0.5,6.3
			c-0.7,1.9-2.1,3.4-4.3,4.5c-2.4-2.1-4.8-3.8-6-4.6c0-0.1-0.1-0.2-0.1-0.3c1-1.1,2.3-2.8,2.3-4.5c0-0.9-0.4-1.8-1.2-2.4
			c-0.4-0.3-0.8-0.7-1.1-1c-2.6-2.4-3.7-4.5-3.3-6.4c0.1-0.5,0.3-0.9,0.6-1.3c1.8-2.7,2.5-5.8,1.9-9c-0.5-2.5-1.7-5.1-3.4-7
			c-2.6-2.9-6.6-7.3-6.1-11c0-0.2-0.1-0.4-0.3-0.5c-0.2-0.1-0.4,0-0.5,0.2c0,0.1-2.9,4.4-7.9,7.3c-0.9,0.5-1.8,1-2.7,1.3
			c-0.3,0.1-0.6,0.2-0.9,0.4c-0.5,0.2-1,0.4-1.4,0.6c-5.7,2.2-9.3,4.1-9,9.5c0.1,2.1,0.4,3.7,0.6,5c0.4,2.3,0.6,3.5-0.5,4.7
			c-0.2,0.3-0.5,0.5-0.7,0.8c-0.9,1.2-1.5,2.8-1.4,4.3c0,0.1,0,0.1,0,0.2c0.1,1.1,0.7,2,1.6,2.6c0.9,0.6,1.5,1.4,1.8,2.2
			c-0.5,1.5-1,2.8-1.5,4.1c-1.2,0.8-3.5,2.4-5.9,4.5c-2.1-1.1-3.4-2.6-4.1-4.4c-0.8-2.3-0.3-4.8,0.5-6.3
			C23.7,53.5,24.1,53,24.5,52.4z M49.4,76.2C49.4,76.2,49.4,76.2,49.4,76.2c-4.8,0-8.1-9.2-8.4-10.2c0.1-0.9,0.2-1.8,0.3-2.6
			c0.4-2.8,1-5.3,1.8-7c0.5-0.5,0.9-1.1,1-1.6c0,0,0,0,0-0.1c0,0,0,0,0-0.1c0.1-0.7,0.1-1.9,0.1-3.3c0-0.8,0-1.7-0.1-2.5
			c0.1,0.1,0.2,0.1,0.3,0.2c1.6,0.8,3.4,1.2,5.1,1.2c1.8,0,3.5-0.4,5.1-1.2c0.1,0,0.1-0.1,0.2-0.1c0,0.8,0,1.7-0.1,2.6
			c0,1.3,0,2.5,0.1,3.1c0,0,0,0.1,0,0.1c0,0,0,0,0,0c0.1,0.6,0.5,1.1,1,1.6c0.9,1.9,1.5,4.6,1.9,7.6c0,0.4,0.1,0.7,0.1,1.1
			C57.6,66.1,54.6,76.2,49.4,76.2z M39.6,80.9c-2.3-2.3-5.6-3.4-7.9-4.2c-0.9-0.3-2.1-0.7-2.3-0.9c0,0,0,0,0,0
			c0.3-2.3,1.6-7.6,6.1-19.9l0.1-0.4c0.1-0.3,0.8-1.2,4.3-2.7c1.3-0.5,2.5-1,3.3-1.2l0,1.1l0,1.5C39.2,59.2,39.4,75.8,39.6,80.9z
			 M33.7,36.3c0-0.3,0-0.6,0-0.8c0,0,0,0,0,0c0.1-0.1,0.1-0.2,0.1-0.4c0-0.1,0-0.1,0-0.2c0-0.3,0.1-0.6,0.2-0.9
			c0-0.1,0.1-0.1,0.1-0.2c0.2-0.4,0.6-0.6,0.7-0.6c0.2,0.2,0.5,0.8,0.7,1.4c0,0.1,0.1,0.2,0.1,0.3c0.1,0.2,0.4,0.3,0.6,0.3
			c0.2-0.1,0.3-0.4,0.3-0.6c-0.9-2.2-1.3-2.2-1.5-2.2c-0.1,0-0.2,0-0.3,0c0.4-0.5,0.8-1,1.3-1.4c0.2,1.3,0.9,4.6,2.4,7.1
			c0,0,0,0.1,0,0.1c0,0.1,0.1,2.6,1.5,5.4c0.4,0.8,0.9,1.6,1.5,2.4c-1.4-1.4-2.3-3-2.8-4.8c-0.2-1-0.5-2-0.7-3.1c0,0,0,0,0,0
			c0,0,0,0,0-0.1c-0.1-0.2-0.4-0.3-0.6-0.2c-0.3,0.1-0.8,0.3-1.5,0.4c0.6-0.1,1.1-0.6,1.1-1.2c0-0.7-0.6-1.2-1.2-1.2
			c-0.7,0-1.2,0.6-1.2,1.2c0,0.6,0.4,1.1,1,1.2c-0.4,0-0.9-0.2-1.4-0.5c-0.1,0-0.1-0.1-0.2-0.1C33.8,37,33.7,36.7,33.7,36.3z
			 M43.6,27.1c0.3-0.1,0.6-0.2,0.9-0.4c0.3-0.1,0.5-0.2,0.8-0.3c4.8-2.1,8.1-5.6,9.5-7.5c0.4,3.6,3.8,7.4,6.3,10.2
			c0.3,0.4,0.6,0.8,0.9,1.2c0,0,0,0.1,0,0.1c-0.1,0.9-0.7,4.3-2.1,6.9c-3-2.6-10.1-2.9-10.5-2.9c0,0,0,0,0,0c-0.1,0-1,0-2.2,0.2
			c-0.3,0-0.5,0.1-0.8,0.1c-2.4,0.3-5.5,1.1-7.3,2.5c-1.3-2.3-1.9-5.1-2.1-6.4c0,0,0.1,0.1,0.1,0.1c0-0.2,0-0.4-0.1-0.6
			c0,0.1,0,0.1-0.1,0.2c0-0.1,0-0.2,0-0.3c0.1,0,0.1-0.1,0.2-0.1C38.7,29,40.9,28.2,43.6,27.1C43.6,27.1,43.6,27.1,43.6,27.1z
			 M62.5,43.9c-1.1,1.6-1.1,3.4-0.1,5.3c0.8,1.4,2.1,2.9,4.1,4.6c0.6,0.5,0.9,1,0.9,1.7c0,1.2-0.9,2.5-1.7,3.5
			c-0.4-1.1-0.8-2.2-1.3-3.5l-0.1-0.4c-0.4-1-1.9-2.1-4.8-3.3c-1.5-0.6-3-1.1-3.7-1.3c0-0.8,0-1.6,0.1-2.3c2.9-1.8,4.7-4.2,5.5-7.2
			c0.2-0.8,0.4-1.7,0.5-2.6c0.4,0.1,0.9,0.2,1.4,0.2c0.3,0,0.7,0,1.1-0.2C64.2,40.5,63.7,42.3,62.5,43.9z M35.6,37.5
			c-0.4,0-0.7-0.3-0.7-0.7c0-0.4,0.3-0.7,0.7-0.7s0.7,0.3,0.7,0.7C36.3,37.1,36,37.5,35.6,37.5z M62.2,36.7c0-0.4,0.3-0.7,0.7-0.7
			c0.4,0,0.7,0.3,0.7,0.7c0,0.4-0.3,0.7-0.7,0.7C62.5,37.5,62.2,37.1,62.2,36.7z M49.1,48.9c-2.6-0.3-4.8-1.4-6.4-3
			c-0.8-0.8-1.5-1.7-2-2.8c-1.1-2.2-1.3-4.2-1.4-4.9c2.4-2.5,9.7-2.9,10.1-2.9c0.3,0,4.4,0.2,7.4,1.4c1.1,0.4,2.1,0.9,2.7,1.6
			c-0.1,0.6-0.3,2.7-1.4,4.8c-1.7,3.4-4.5,5.4-8.4,5.9C49.6,49,49.3,49,49.1,48.9z M62.5,34.4c-0.1,0.2,0,0.5,0.3,0.6
			c0.2,0.1,0.5,0,0.6-0.3c0-0.1,0.1-0.2,0.1-0.3c0.1-0.3,0.2-0.6,0.4-0.8c0.1,0.3,0.2,0.6,0.3,0.9c0.3,1,0.4,2.1,0.4,3.1
			c-0.5,0.2-1,0.2-1.4,0.2c0.6-0.1,1.1-0.6,1.1-1.2c0-0.7-0.6-1.2-1.2-1.2c-0.7,0-1.2,0.6-1.2,1.2c0,0.5,0.3,0.9,0.6,1.1
			c-0.2-0.1-0.5-0.2-0.6-0.2c-0.2-0.1-0.5,0-0.6,0.2c0,0.1,0,0.1,0,0.2c-0.2,1-0.4,2-0.6,2.9c-0.5,2.2-1.7,4-3.5,5.5
			c0.9-1,1.6-2,2.1-3c1.2-2.4,1.4-4.7,1.5-5.3c1.3-2.1,2-5,2.3-6.7c0.2,0.4,0.4,0.7,0.6,1.1C63.2,33,62.9,33.5,62.5,34.4z
			 M34.3,41.2c-0.1-0.8-0.3-1.7-0.4-2.8c0.6,0.3,1.2,0.4,1.8,0.4c0.6,0,1.1-0.1,1.5-0.3c0.2,0.9,0.4,1.8,0.6,2.6
			c0.7,2.9,2.5,5.3,5.3,7.1c0,0.7,0.1,1.6,0.1,2.4c-0.7,0.2-2.1,0.7-3.7,1.3c-2.8,1.1-4.3,2.2-4.8,3.1c-0.4-0.7-1-1.3-1.8-1.8
			c-0.7-0.5-1.1-1.2-1.2-2c-0.2-1.4,0.6-3.2,1.9-4.6C35,45.2,34.7,43.6,34.3,41.2z M69.6,75.8c-0.3,0.2-1.4,0.6-2.3,0.9
			c-2.3,0.8-5.6,1.9-7.9,4.2c0.2-5.1,0.4-21.7-3.5-26.6l0-1.7l0-0.9c0.7,0.2,2,0.7,3.3,1.2c3.5,1.4,4.1,2.3,4.3,2.7l0.1,0.4
			c4.4,11.9,5.8,17.2,6.1,19.7C69.6,75.7,69.6,75.8,69.6,75.8z"/>
		<path fill="#70193B" d="M52.8,27.4c0.4,0,3.6-0.5,4.5-0.4c0.9,0.2,2.3,1.6,2.3,1.5s-0.9-1.6-1.7-2.1s-4.8-0.1-5.4,0.1
			C51.3,27,52.4,27.4,52.8,27.4z"/>
		<path fill="#70193B" d="M46.6,26.6c-0.2-0.1-0.7-0.1-1.3-0.2c-0.3,0.1-0.5,0.2-0.8,0.3c-0.3,0.1-0.6,0.2-0.9,0.4c0,0,0,0-0.1,0
			c1.2,0.1,2.5,0.3,2.8,0.3C46.7,27.4,47.8,27,46.6,26.6z"/>
		<path fill="#E54848" d="M67.9,50.8c0.5-0.8,1.4-1.2,2.9-0.7l-1.5-4.6c-1.2,1-2.4,1.9-3.6,0.9c-1-0.8-2.1-0.8-3-0.6
			c-0.4,1.8,0.7,3.9,3.3,6.4C66.7,51.9,67.4,51.5,67.9,50.8z"/>
		<path fill="#FFFFFF" d="M35.6,36c-0.4,0-0.7,0.3-0.7,0.7c0,0.4,0.3,0.7,0.7,0.7s0.7-0.3,0.7-0.7C36.3,36.4,36,36,35.6,36z"/>
		<path fill="#FFFFFF" d="M62.9,37.5c0.4,0,0.7-0.3,0.7-0.7c0-0.4-0.3-0.7-0.7-0.7c-0.4,0-0.7,0.3-0.7,0.7
			C62.2,37.1,62.5,37.5,62.9,37.5z"/>
		<path fill="#42E2DA" d="M27.3,78.5c0.1-0.3,0.4-0.4,0.7-0.2c0.3,0.1,0.4,0.4,0.2,0.7c0,0-0.3,0.5-0.6,1.4c0,0,0.1-0.1,0.1-0.1
			c0,0,1,6.8,11.5,9.4c0.2-3.2,0.3-6.3,0.3-7.1c-2-2.7-5.8-4-8.3-4.8c-0.8-0.3-1.5-0.5-2-0.7c-0.3-0.1-1.1-0.5-1-1.2
			c0.2-1.9,1.1-5.8,3.9-13.8c-3.3,2.3-9.8,7.4-11.2,11.6c-0.6,1.7-1.1,4.2-1.7,6.9c1,2.5,2.7,4.7,4.9,6.5c0.7-1.7,1.2-3,1.7-4.1
			C26.5,80.2,27.3,78.6,27.3,78.5z"/>
		<path fill="#10C4B7" d="M25.9,83.4c0-0.2,0.1-0.4,0.1-0.6c-0.5,1-1.1,2.4-1.7,4.1c0.4,0.4,0.9,0.7,1.4,1
			C25.6,86.3,25.7,84.7,25.9,83.4z"/>
		<path fill="#10C4B7" d="M27.8,80.2c0,0-0.1,0.1-0.1,0.1c-0.3,0.8-0.6,1.9-0.8,3.3c-0.2,1.4-0.3,3.1-0.1,5
			c3.5,2.1,7.7,3.5,12.4,4.3c0.1-1.1,0.1-2.2,0.2-3.3C28.8,87.1,27.8,80.2,27.8,80.2z"/>
		<path fill="#42E2DA" d="M66.7,62c2.8,8.1,3.7,12,3.9,13.8c0.1,0.7-0.7,1.1-1,1.2c-0.5,0.2-1.2,0.5-2,0.7c-2.5,0.8-6.3,2.1-8.3,4.8
			c0,0.7,0.1,3.6,0.3,6.7c8.7-2.3,11.2-6.8,11.8-8.4c-0.4-1.2-0.7-1.9-0.7-1.9c-0.1-0.3,0-0.6,0.2-0.7c0.3-0.1,0.6,0,0.7,0.2
			c0,0.1,0.8,1.7,1.3,4.4c0.2,0.5,0.5,1.1,0.8,1.8c2.9-2.4,4.4-4.8,5.2-7.3c-0.3-1.5-0.7-2.8-1-3.9C76.5,69.4,70,64.3,66.7,62z"/>
		<path fill="#10C4B7" d="M73,83.4c0.1,0.5,0.1,1.1,0.2,1.7c0.2-0.1,0.3-0.3,0.5-0.4c-0.3-0.7-0.6-1.3-0.8-1.8
			C73,83.1,73,83.3,73,83.4z"/>
		<path fill="#10C4B7" d="M71.4,80.8c-0.6,1.6-3.1,6.1-11.8,8.4c0,0.8,0.1,1.7,0.1,2.5c4.5-1.3,8.8-3.2,12.5-5.9
			c0-0.8-0.1-1.6-0.2-2.2C71.8,82.5,71.6,81.6,71.4,80.8z"/>
		<path fill="#D9FFFC" d="M37.6,57c0.7-3,4-3.9,5.5-4.2l0-1.1c-0.7,0.2-2,0.7-3.3,1.2c-3.5,1.4-4.1,2.3-4.3,2.7L35.4,56
			c-4.5,12.2-5.8,17.5-6.1,19.9C38.7,75.3,36.7,60.8,37.6,57z"/>
		<path fill="#AEE5DF" d="M43.1,54.4l0-1.5c-1.4,0.3-4.8,1.2-5.5,4.2c-0.9,3.8,1,18.3-8.3,18.8c0,0,0,0,0,0c0.3,0.2,1.4,0.6,2.3,0.9
			c2.3,0.8,5.6,1.9,7.9,4.2C39.4,75.8,39.2,59.2,43.1,54.4z"/>
		<path fill="#D9FFFC" d="M63.5,56l-0.1-0.4c-0.1-0.3-0.8-1.2-4.3-2.7c-1.3-0.5-2.5-1-3.3-1.2l0,0.9c1.4,0.3,4.8,1.2,5.5,4.2
			c0.9,3.8-1,18.3,8.3,18.8C69.2,73.2,67.9,67.9,63.5,56z"/>
		<path fill="#AEE5DF" d="M61.3,56.8c-0.7-3-4-3.9-5.5-4.2l0,1.7c3.9,4.9,3.7,21.5,3.5,26.6c2.3-2.3,5.6-3.4,7.9-4.2
			c0.9-0.3,2.1-0.7,2.3-0.9c0-0.1,0-0.1,0-0.2C60.2,75.1,62.2,60.6,61.3,56.8z"/>
		<path fill="#58002A" d="M26.9,83.6c0.2-1.3,0.5-2.5,0.8-3.3c0.3-0.9,0.6-1.4,0.6-1.4c0.1-0.3,0-0.6-0.2-0.7
			c-0.3-0.1-0.6,0-0.7,0.2c0,0.1-0.8,1.7-1.3,4.4c0,0.2-0.1,0.4-0.1,0.6c-0.2,1.2-0.3,2.8-0.2,4.6c0.3,0.2,0.7,0.5,1.1,0.7
			C26.6,86.7,26.7,85,26.9,83.6z"/>
		<path fill="#58002A" d="M72.9,82.9c-0.5-2.7-1.3-4.3-1.3-4.4c-0.1-0.3-0.4-0.4-0.7-0.2c-0.3,0.1-0.4,0.4-0.2,0.7
			c0,0,0.3,0.7,0.7,1.9c0.2,0.8,0.5,1.7,0.6,2.8c0.1,0.7,0.2,1.4,0.2,2.2c0.3-0.2,0.5-0.4,0.8-0.6c0.1,0,0.1-0.1,0.2-0.1
			c0-0.6-0.1-1.2-0.2-1.7C73,83.3,73,83.1,72.9,82.9z"/>
	</g>
</g>
</svg>
